<?xml version="1.0" encoding="UTF-8" standalone="no"?>
<!DOCTYPE svg PUBLIC "-//W3C//DTD SVG 1.1//EN"
 "http://www.w3.org/Graphics/SVG/1.1/DTD/svg11.dtd">
<!-- Generated by graphviz version 2.40.1 (20161225.0304)
 -->
<!-- Title: G Pages: 1 -->
<svg width="385pt" height="663pt"
 viewBox="0.00 0.00 384.86 663.00" xmlns="http://www.w3.org/2000/svg" xmlns:xlink="http://www.w3.org/1999/xlink">
<g id="graph0" class="graph" transform="scale(1 1) rotate(0) translate(4 659)">
<title>G</title>
<polygon fill="#ffffff" stroke="transparent" points="-4,4 -4,-659 380.863,-659 380.863,4 -4,4"/>
<!-- A0 -->
<g id="node1" class="node">
<title>A0</title>
<ellipse fill="none" stroke="#000000" cx="48.7325" cy="-644" rx="11" ry="11"/>
</g>
<!-- A1 -->
<g id="node2" class="node">
<title>A1</title>
<path fill="none" stroke="#000000" d="M85.6986,-585C85.6986,-585 11.7664,-585 11.7664,-585 5.7664,-585 -.2336,-579 -.2336,-573 -.2336,-573 -.2336,-561 -.2336,-561 -.2336,-555 5.7664,-549 11.7664,-549 11.7664,-549 85.6986,-549 85.6986,-549 91.6986,-549 97.6986,-555 97.6986,-561 97.6986,-561 97.6986,-573 97.6986,-573 97.6986,-579 91.6986,-585 85.6986,-585"/>
<text text-anchor="middle" x="48.7325" y="-564" font-family="Helvetica,sans-Serif" font-size="10.00" fill="#000000">{Is Model Valid}</text>
</g>
<!-- A0&#45;&gt;A1 -->
<g id="edge1" class="edge">
<title>A0&#45;&gt;A1</title>
<path fill="none" stroke="#000000" d="M48.7325,-632.9678C48.7325,-623.124 48.7325,-608.2813 48.7325,-595.1664"/>
<polygon fill="#000000" stroke="#000000" points="48.7325,-585.1474 53.2326,-595.1473 48.7325,-590.1474 48.7326,-595.1474 48.7326,-595.1474 48.7326,-595.1474 48.7325,-590.1474 44.2326,-595.1474 48.7325,-585.1474 48.7325,-585.1474"/>
<text text-anchor="middle" x="81.5165" y="-606" font-family="Helvetica,sans-Serif" font-size="10.00" fill="#000000">[New Request]</text>
</g>
<!-- A2 -->
<g id="node3" class="node">
<title>A2</title>
<path fill="none" stroke="#000000" d="M172.4129,-176C172.4129,-176 77.0521,-176 77.0521,-176 71.0521,-176 65.0521,-170 65.0521,-164 65.0521,-164 65.0521,-152 65.0521,-152 65.0521,-146 71.0521,-140 77.0521,-140 77.0521,-140 172.4129,-140 172.4129,-140 178.4129,-140 184.4129,-146 184.4129,-152 184.4129,-152 184.4129,-164 184.4129,-164 184.4129,-170 178.4129,-176 172.4129,-176"/>
<text text-anchor="middle" x="124.7325" y="-155" font-family="Helvetica,sans-Serif" font-size="10.00" fill="#000000">{Return Error Model}</text>
</g>
<!-- A1&#45;&gt;A2 -->
<g id="edge2" class="edge">
<title>A1&#45;&gt;A2</title>
<path fill="none" stroke="#000000" d="M43.2262,-548.8371C38.598,-531.9505 32.7325,-506.0106 32.7325,-483 32.7325,-483 32.7325,-483 32.7325,-242 32.7325,-215.6506 53.568,-195.3564 75.4081,-181.3216"/>
<polygon fill="#000000" stroke="#000000" points="84.1122,-176.0639 77.8793,-185.0862 79.8324,-178.6491 75.5525,-181.2344 75.5525,-181.2344 75.5525,-181.2344 79.8324,-178.6491 73.2258,-177.3825 84.1122,-176.0639 84.1122,-176.0639"/>
<text text-anchor="middle" x="41.9005" y="-354" font-family="Helvetica,sans-Serif" font-size="10.00" fill="#000000">[No]</text>
</g>
<!-- A3 -->
<g id="node4" class="node">
<title>A3</title>
<path fill="none" stroke="#000000" d="M178.3746,-501C178.3746,-501 73.0904,-501 73.0904,-501 67.0904,-501 61.0904,-495 61.0904,-489 61.0904,-489 61.0904,-477 61.0904,-477 61.0904,-471 67.0904,-465 73.0904,-465 73.0904,-465 178.3746,-465 178.3746,-465 184.3746,-465 190.3746,-471 190.3746,-477 190.3746,-477 190.3746,-489 190.3746,-489 190.3746,-495 184.3746,-501 178.3746,-501"/>
<text text-anchor="middle" x="125.7325" y="-486" font-family="Helvetica,sans-Serif" font-size="10.00" fill="#000000">{Does Model Schedule</text>
<text text-anchor="middle" x="125.7325" y="-474" font-family="Helvetica,sans-Serif" font-size="10.00" fill="#000000">Key Exist}</text>
</g>
<!-- A1&#45;&gt;A3 -->
<g id="edge3" class="edge">
<title>A1&#45;&gt;A3</title>
<path fill="none" stroke="#000000" d="M65.4404,-548.7733C76.136,-537.1053 90.1774,-521.7874 102.0184,-508.8699"/>
<polygon fill="#000000" stroke="#000000" points="109.0573,-501.1912 105.6172,-511.6035 105.6786,-504.877 102.3,-508.5627 102.3,-508.5627 102.3,-508.5627 105.6786,-504.877 98.9828,-505.522 109.0573,-501.1912 109.0573,-501.1912"/>
<text text-anchor="middle" x="103.1255" y="-522" font-family="Helvetica,sans-Serif" font-size="10.00" fill="#000000">[Yes]</text>
</g>
<!-- A4 -->
<g id="node5" class="node">
<title>A4</title>
<ellipse fill="none" stroke="#000000" cx="169.7325" cy="-15" rx="11" ry="11"/>
<ellipse fill="none" stroke="#000000" cx="169.7325" cy="-15" rx="15" ry="15"/>
</g>
<!-- A2&#45;&gt;A4 -->
<g id="edge5" class="edge">
<title>A2&#45;&gt;A4</title>
<path fill="none" stroke="#000000" d="M130.4318,-139.889C138.478,-114.3199 153.1841,-67.5873 162.1464,-39.107"/>
<polygon fill="#000000" stroke="#000000" points="165.1654,-29.5131 166.4561,-40.4027 163.6645,-34.2825 162.1636,-39.0519 162.1636,-39.0519 162.1636,-39.0519 163.6645,-34.2825 157.8712,-37.7011 165.1654,-29.5131 165.1654,-29.5131"/>
</g>
<!-- A3&#45;&gt;A2 -->
<g id="edge4" class="edge">
<title>A3&#45;&gt;A2</title>
<path fill="none" stroke="#000000" d="M108.4983,-464.9334C95.0845,-448.9243 78.7325,-424.2335 78.7325,-399 78.7325,-399 78.7325,-399 78.7325,-242 78.7325,-220.8164 90.1261,-199.9125 101.5725,-184.2568"/>
<polygon fill="#000000" stroke="#000000" points="107.865,-176.1307 105.3004,-186.7924 104.8037,-180.084 101.7424,-184.0373 101.7424,-184.0373 101.7424,-184.0373 104.8037,-180.084 98.1844,-181.2821 107.865,-176.1307 107.865,-176.1307"/>
<text text-anchor="middle" x="90.1255" y="-312" font-family="Helvetica,sans-Serif" font-size="10.00" fill="#000000">[Yes]</text>
</g>
<!-- A5 -->
<g id="node6" class="node">
<title>A5</title>
<path fill="none" stroke="#000000" d="M245.5287,-417C245.5287,-417 153.9363,-417 153.9363,-417 147.9363,-417 141.9363,-411 141.9363,-405 141.9363,-405 141.9363,-393 141.9363,-393 141.9363,-387 147.9363,-381 153.9363,-381 153.9363,-381 245.5287,-381 245.5287,-381 251.5287,-381 257.5287,-387 257.5287,-393 257.5287,-393 257.5287,-405 257.5287,-405 257.5287,-411 251.5287,-417 245.5287,-417"/>
<text text-anchor="middle" x="199.7325" y="-396" font-family="Helvetica,sans-Serif" font-size="10.00" fill="#000000">{Does Device Exist}</text>
</g>
<!-- A3&#45;&gt;A5 -->
<g id="edge6" class="edge">
<title>A3&#45;&gt;A5</title>
<path fill="none" stroke="#000000" d="M141.7894,-464.7733C152.0683,-453.1053 165.5626,-437.7874 176.9424,-424.8699"/>
<polygon fill="#000000" stroke="#000000" points="183.7069,-417.1912 180.4732,-427.6694 180.4018,-420.943 177.0966,-424.6948 177.0966,-424.6948 177.0966,-424.6948 180.4018,-420.943 173.72,-421.7201 183.7069,-417.1912 183.7069,-417.1912"/>
<text text-anchor="middle" x="175.9005" y="-438" font-family="Helvetica,sans-Serif" font-size="10.00" fill="#000000">[No]</text>
</g>
<!-- A6 -->
<g id="node7" class="node">
<title>A6</title>
<path fill="none" stroke="#000000" d="M249.2054,-333C249.2054,-333 150.2596,-333 150.2596,-333 144.2596,-333 138.2596,-327 138.2596,-321 138.2596,-321 138.2596,-309 138.2596,-309 138.2596,-303 144.2596,-297 150.2596,-297 150.2596,-297 249.2054,-297 249.2054,-297 255.2054,-297 261.2054,-303 261.2054,-309 261.2054,-309 261.2054,-321 261.2054,-321 261.2054,-327 255.2054,-333 249.2054,-333"/>
<text text-anchor="middle" x="199.7325" y="-318" font-family="Helvetica,sans-Serif" font-size="10.00" fill="#000000">{Generate New Local</text>
<text text-anchor="middle" x="199.7325" y="-306" font-family="Helvetica,sans-Serif" font-size="10.00" fill="#000000">Device}</text>
</g>
<!-- A5&#45;&gt;A6 -->
<g id="edge7" class="edge">
<title>A5&#45;&gt;A6</title>
<path fill="none" stroke="#000000" d="M199.7325,-380.7733C199.7325,-369.8758 199.7325,-355.7946 199.7325,-343.4587"/>
<polygon fill="#000000" stroke="#000000" points="199.7325,-333.1912 204.2326,-343.1911 199.7325,-338.1912 199.7326,-343.1912 199.7326,-343.1912 199.7326,-343.1912 199.7325,-338.1912 195.2326,-343.1912 199.7325,-333.1912 199.7325,-333.1912"/>
<text text-anchor="middle" x="208.9005" y="-354" font-family="Helvetica,sans-Serif" font-size="10.00" fill="#000000">[No]</text>
</g>
<!-- A8 -->
<g id="node9" class="node">
<title>A8</title>
<path fill="none" stroke="#000000" d="M364.9938,-260C364.9938,-260 268.4712,-260 268.4712,-260 262.4712,-260 256.4712,-254 256.4712,-248 256.4712,-248 256.4712,-236 256.4712,-236 256.4712,-230 262.4712,-224 268.4712,-224 268.4712,-224 364.9938,-224 364.9938,-224 370.9938,-224 376.9938,-230 376.9938,-236 376.9938,-236 376.9938,-248 376.9938,-248 376.9938,-254 370.9938,-260 364.9938,-260"/>
<text text-anchor="middle" x="316.7325" y="-245" font-family="Helvetica,sans-Serif" font-size="10.00" fill="#000000">{Insert Schedule Into</text>
<text text-anchor="middle" x="316.7325" y="-233" font-family="Helvetica,sans-Serif" font-size="10.00" fill="#000000">Database}</text>
</g>
<!-- A5&#45;&gt;A8 -->
<g id="edge9" class="edge">
<title>A5&#45;&gt;A8</title>
<path fill="none" stroke="#000000" d="M222.7693,-380.7737C237.438,-368.3774 256.1623,-351.0082 269.7325,-333 284.5862,-313.2886 297.1497,-288.1997 305.5398,-269.3595"/>
<polygon fill="#000000" stroke="#000000" points="309.5369,-260.1385 309.6885,-271.1034 307.5483,-264.7261 305.5597,-269.3136 305.5597,-269.3136 305.5597,-269.3136 307.5483,-264.7261 301.4309,-267.5239 309.5369,-260.1385 309.5369,-260.1385"/>
<text text-anchor="middle" x="303.1255" y="-312" font-family="Helvetica,sans-Serif" font-size="10.00" fill="#000000">[Yes]</text>
</g>
<!-- A7 -->
<g id="node8" class="node">
<title>A7</title>
<path fill="none" stroke="#000000" d="M227.2063,-260C227.2063,-260 118.2587,-260 118.2587,-260 112.2587,-260 106.2587,-254 106.2587,-248 106.2587,-248 106.2587,-236 106.2587,-236 106.2587,-230 112.2587,-224 118.2587,-224 118.2587,-224 227.2063,-224 227.2063,-224 233.2063,-224 239.2063,-230 239.2063,-236 239.2063,-236 239.2063,-248 239.2063,-248 239.2063,-254 233.2063,-260 227.2063,-260"/>
<text text-anchor="middle" x="172.7325" y="-245" font-family="Helvetica,sans-Serif" font-size="10.00" fill="#000000">{Send Unknown Device</text>
<text text-anchor="middle" x="172.7325" y="-233" font-family="Helvetica,sans-Serif" font-size="10.00" fill="#000000">Message}</text>
</g>
<!-- A6&#45;&gt;A7 -->
<g id="edge8" class="edge">
<title>A6&#45;&gt;A7</title>
<path fill="none" stroke="#000000" d="M193.0583,-296.9551C190.0078,-288.7074 186.3263,-278.7536 182.9393,-269.5962"/>
<polygon fill="#000000" stroke="#000000" points="179.4235,-260.0904 187.113,-267.9083 181.158,-264.7799 182.8925,-269.4694 182.8925,-269.4694 182.8925,-269.4694 181.158,-264.7799 178.6719,-271.0305 179.4235,-260.0904 179.4235,-260.0904"/>
</g>
<!-- A6&#45;&gt;A8 -->
<g id="edge10" class="edge">
<title>A6&#45;&gt;A8</title>
<path fill="none" stroke="#000000" d="M228.6539,-296.9551C243.8415,-287.479 262.6388,-275.7508 278.9626,-265.5658"/>
<polygon fill="#000000" stroke="#000000" points="287.7384,-260.0904 281.6364,-269.2017 283.4963,-262.7371 279.2543,-265.3839 279.2543,-265.3839 279.2543,-265.3839 283.4963,-262.7371 276.8722,-261.566 287.7384,-260.0904 287.7384,-260.0904"/>
</g>
<!-- A8&#45;&gt;A2 -->
<g id="edge11" class="edge">
<title>A8&#45;&gt;A2</title>
<path fill="none" stroke="#000000" d="M275.5437,-223.9799C246.2855,-211.1794 206.8123,-193.9099 175.5888,-180.2496"/>
<polygon fill="#000000" stroke="#000000" points="166.184,-176.135 177.1493,-176.0206 170.7648,-178.1392 175.3456,-180.1433 175.3456,-180.1433 175.3456,-180.1433 170.7648,-178.1392 173.5419,-184.266 166.184,-176.135 166.184,-176.135"/>
<text text-anchor="middle" x="248.1235" y="-197" font-family="Helvetica,sans-Serif" font-size="10.00" fill="#000000">[Failed]</text>
</g>
<!-- A9 -->
<g id="node10" class="node">
<title>A9</title>
<path fill="none" stroke="#000000" d="M347.8926,-176C347.8926,-176 237.5724,-176 237.5724,-176 231.5724,-176 225.5724,-170 225.5724,-164 225.5724,-164 225.5724,-152 225.5724,-152 225.5724,-146 231.5724,-140 237.5724,-140 237.5724,-140 347.8926,-140 347.8926,-140 353.8926,-140 359.8926,-146 359.8926,-152 359.8926,-152 359.8926,-164 359.8926,-164 359.8926,-170 353.8926,-176 347.8926,-176"/>
<text text-anchor="middle" x="292.7325" y="-161" font-family="Helvetica,sans-Serif" font-size="10.00" fill="#000000">{Send Schedule Update</text>
<text text-anchor="middle" x="292.7325" y="-149" font-family="Helvetica,sans-Serif" font-size="10.00" fill="#000000">Message}</text>
</g>
<!-- A8&#45;&gt;A9 -->
<g id="edge12" class="edge">
<title>A8&#45;&gt;A9</title>
<path fill="none" stroke="#000000" d="M311.5249,-223.7733C308.3799,-212.7657 304.3067,-198.5098 300.7569,-186.0854"/>
<polygon fill="#000000" stroke="#000000" points="297.93,-176.1912 305.0041,-184.5701 299.3036,-180.9988 300.6773,-185.8064 300.6773,-185.8064 300.6773,-185.8064 299.3036,-180.9988 296.3504,-187.0427 297.93,-176.1912 297.93,-176.1912"/>
<text text-anchor="middle" x="327.405" y="-197" font-family="Helvetica,sans-Serif" font-size="10.00" fill="#000000">[Success]</text>
</g>
<!-- A10 -->
<g id="node11" class="node">
<title>A10</title>
<path fill="none" stroke="#000000" d="M291.6415,-103C291.6415,-103 213.8235,-103 213.8235,-103 207.8235,-103 201.8235,-97 201.8235,-91 201.8235,-91 201.8235,-79 201.8235,-79 201.8235,-73 207.8235,-67 213.8235,-67 213.8235,-67 291.6415,-67 291.6415,-67 297.6415,-67 303.6415,-73 303.6415,-79 303.6415,-79 303.6415,-91 303.6415,-91 303.6415,-97 297.6415,-103 291.6415,-103"/>
<text text-anchor="middle" x="252.7325" y="-88" font-family="Helvetica,sans-Serif" font-size="10.00" fill="#000000">{Return Success</text>
<text text-anchor="middle" x="252.7325" y="-76" font-family="Helvetica,sans-Serif" font-size="10.00" fill="#000000">Model}</text>
</g>
<!-- A9&#45;&gt;A10 -->
<g id="edge13" class="edge">
<title>A9&#45;&gt;A10</title>
<path fill="none" stroke="#000000" d="M282.8449,-139.9551C278.2294,-131.5319 272.6389,-121.3292 267.534,-112.0128"/>
<polygon fill="#000000" stroke="#000000" points="262.645,-103.0904 271.3968,-109.6977 265.0477,-107.4752 267.4504,-111.8601 267.4504,-111.8601 267.4504,-111.8601 265.0477,-107.4752 263.504,-114.0226 262.645,-103.0904 262.645,-103.0904"/>
</g>
<!-- A10&#45;&gt;A4 -->
<g id="edge14" class="edge">
<title>A10&#45;&gt;A4</title>
<path fill="none" stroke="#000000" d="M231.3579,-66.9733C218.2768,-55.9409 201.6756,-41.9399 189.0003,-31.25"/>
<polygon fill="#000000" stroke="#000000" points="181.3142,-24.7677 191.8598,-27.7748 185.1364,-27.9913 188.9586,-31.2148 188.9586,-31.2148 188.9586,-31.2148 185.1364,-27.9913 186.0574,-34.6547 181.3142,-24.7677 181.3142,-24.7677"/>
</g>
</g>
</svg>
