<?xml version="1.0" encoding="UTF-8" standalone="no"?>
<!DOCTYPE svg PUBLIC "-//W3C//DTD SVG 1.1//EN"
 "http://www.w3.org/Graphics/SVG/1.1/DTD/svg11.dtd">
<!-- Generated by graphviz version 2.40.1 (20161225.0304)
 -->
<!-- Title: G Pages: 1 -->
<svg width="295pt" height="923pt"
 viewBox="0.00 0.00 295.14 923.00" xmlns="http://www.w3.org/2000/svg" xmlns:xlink="http://www.w3.org/1999/xlink">
<g id="graph0" class="graph" transform="scale(1 1) rotate(0) translate(4 919)">
<title>G</title>
<polygon fill="#ffffff" stroke="transparent" points="-4,4 -4,-919 291.14,-919 291.14,4 -4,4"/>
<!-- A0 -->
<g id="node1" class="node">
<title>A0</title>
<ellipse fill="none" stroke="#000000" cx="58.7355" cy="-904" rx="11" ry="11"/>
</g>
<!-- A1 -->
<g id="node2" class="node">
<title>A1</title>
<path fill="none" stroke="#000000" d="M105.7074,-845C105.7074,-845 11.7636,-845 11.7636,-845 5.7636,-845 -.2364,-839 -.2364,-833 -.2364,-833 -.2364,-821 -.2364,-821 -.2364,-815 5.7636,-809 11.7636,-809 11.7636,-809 105.7074,-809 105.7074,-809 111.7074,-809 117.7074,-815 117.7074,-821 117.7074,-821 117.7074,-833 117.7074,-833 117.7074,-839 111.7074,-845 105.7074,-845"/>
<text text-anchor="middle" x="58.7355" y="-824" font-family="Helvetica,sans-Serif" font-size="10.00" fill="#000000">{Is The Model Valid}</text>
</g>
<!-- A0&#45;&gt;A1 -->
<g id="edge1" class="edge">
<title>A0&#45;&gt;A1</title>
<path fill="none" stroke="#000000" d="M58.7355,-892.9678C58.7355,-883.124 58.7355,-868.2813 58.7355,-855.1664"/>
<polygon fill="#000000" stroke="#000000" points="58.7355,-845.1474 63.2356,-855.1473 58.7355,-850.1474 58.7356,-855.1474 58.7356,-855.1474 58.7356,-855.1474 58.7355,-850.1474 54.2356,-855.1474 58.7355,-845.1474 58.7355,-845.1474"/>
<text text-anchor="middle" x="94.3035" y="-866" font-family="Helvetica,sans-Serif" font-size="10.00" fill="#000000">[Begin Request]</text>
</g>
<!-- A2 -->
<g id="node3" class="node">
<title>A2</title>
<path fill="none" stroke="#000000" d="M135.4159,-593C135.4159,-593 40.0551,-593 40.0551,-593 34.0551,-593 28.0551,-587 28.0551,-581 28.0551,-581 28.0551,-569 28.0551,-569 28.0551,-563 34.0551,-557 40.0551,-557 40.0551,-557 135.4159,-557 135.4159,-557 141.4159,-557 147.4159,-563 147.4159,-569 147.4159,-569 147.4159,-581 147.4159,-581 147.4159,-587 141.4159,-593 135.4159,-593"/>
<text text-anchor="middle" x="87.7355" y="-572" font-family="Helvetica,sans-Serif" font-size="10.00" fill="#000000">{Return Error Model}</text>
</g>
<!-- A1&#45;&gt;A2 -->
<g id="edge2" class="edge">
<title>A1&#45;&gt;A2</title>
<path fill="none" stroke="#000000" d="M58.4929,-808.893C58.3991,-788.4616 58.7845,-754.2601 61.7355,-725 66.0345,-682.3749 75.3132,-633.5911 81.542,-603.5368"/>
<polygon fill="#000000" stroke="#000000" points="83.684,-593.3577 86.0283,-604.07 82.6544,-598.2505 81.6247,-603.1434 81.6247,-603.1434 81.6247,-603.1434 82.6544,-598.2505 77.2212,-602.2167 83.684,-593.3577 83.684,-593.3577"/>
<text text-anchor="middle" x="74.9035" y="-698" font-family="Helvetica,sans-Serif" font-size="10.00" fill="#000000">[No]</text>
</g>
<!-- A3 -->
<g id="node4" class="node">
<title>A3</title>
<path fill="none" stroke="#000000" d="M178.3796,-761C178.3796,-761 83.0914,-761 83.0914,-761 77.0914,-761 71.0914,-755 71.0914,-749 71.0914,-749 71.0914,-737 71.0914,-737 71.0914,-731 77.0914,-725 83.0914,-725 83.0914,-725 178.3796,-725 178.3796,-725 184.3796,-725 190.3796,-731 190.3796,-737 190.3796,-737 190.3796,-749 190.3796,-749 190.3796,-755 184.3796,-761 178.3796,-761"/>
<text text-anchor="middle" x="130.7355" y="-746" font-family="Helvetica,sans-Serif" font-size="10.00" fill="#000000">{Does The Schedule</text>
<text text-anchor="middle" x="130.7355" y="-734" font-family="Helvetica,sans-Serif" font-size="10.00" fill="#000000">Key Exist}</text>
</g>
<!-- A1&#45;&gt;A3 -->
<g id="edge3" class="edge">
<title>A1&#45;&gt;A3</title>
<path fill="none" stroke="#000000" d="M74.3584,-808.7733C84.3595,-797.1053 97.4891,-781.7874 108.5613,-768.8699"/>
<polygon fill="#000000" stroke="#000000" points="115.1431,-761.1912 112.0518,-771.7123 111.8891,-764.9875 108.6351,-768.7838 108.6351,-768.7838 108.6351,-768.7838 111.8891,-764.9875 105.2184,-765.8552 115.1431,-761.1912 115.1431,-761.1912"/>
<text text-anchor="middle" x="110.1285" y="-782" font-family="Helvetica,sans-Serif" font-size="10.00" fill="#000000">[Yes]</text>
</g>
<!-- A12 -->
<g id="node13" class="node">
<title>A12</title>
<ellipse fill="none" stroke="#000000" cx="113.7355" cy="-15" rx="11" ry="11"/>
<ellipse fill="none" stroke="#000000" cx="113.7355" cy="-15" rx="15" ry="15"/>
</g>
<!-- A2&#45;&gt;A12 -->
<g id="edge14" class="edge">
<title>A2&#45;&gt;A12</title>
<path fill="none" stroke="#000000" d="M93.1884,-556.8843C97.1193,-542.224 101.7355,-520.9697 101.7355,-502 101.7355,-502 101.7355,-502 101.7355,-85 101.7355,-69.7252 104.5456,-52.8415 107.4461,-39.4832"/>
<polygon fill="#000000" stroke="#000000" points="109.7397,-29.6239 111.8568,-40.3834 108.6067,-34.4938 107.4738,-39.3638 107.4738,-39.3638 107.4738,-39.3638 108.6067,-34.4938 103.0908,-38.3441 109.7397,-29.6239 109.7397,-29.6239"/>
</g>
<!-- A3&#45;&gt;A2 -->
<g id="edge4" class="edge">
<title>A3&#45;&gt;A2</title>
<path fill="none" stroke="#000000" d="M119.7165,-724.9249C112.4108,-712.0388 103.2987,-694.0459 98.3995,-677 91.4052,-652.6647 88.8909,-623.89 88.0376,-603.1179"/>
<polygon fill="#000000" stroke="#000000" points="87.7279,-593.0507 92.5334,-602.9076 87.8817,-598.0484 88.0355,-603.046 88.0355,-603.046 88.0355,-603.046 87.8817,-598.0484 83.5376,-603.1845 87.7279,-593.0507 87.7279,-593.0507"/>
<text text-anchor="middle" x="106.9035" y="-656" font-family="Helvetica,sans-Serif" font-size="10.00" fill="#000000">[No]</text>
</g>
<!-- A4 -->
<g id="node5" class="node">
<title>A4</title>
<path fill="none" stroke="#000000" d="M240.106,-677C240.106,-677 137.365,-677 137.365,-677 131.365,-677 125.365,-671 125.365,-665 125.365,-665 125.365,-653 125.365,-653 125.365,-647 131.365,-641 137.365,-641 137.365,-641 240.106,-641 240.106,-641 246.106,-641 252.106,-647 252.106,-653 252.106,-653 252.106,-665 252.106,-665 252.106,-671 246.106,-677 240.106,-677"/>
<text text-anchor="middle" x="188.7355" y="-662" font-family="Helvetica,sans-Serif" font-size="10.00" fill="#000000">{Get Schedule Default</text>
<text text-anchor="middle" x="188.7355" y="-650" font-family="Helvetica,sans-Serif" font-size="10.00" fill="#000000">From Database}</text>
</g>
<!-- A3&#45;&gt;A4 -->
<g id="edge5" class="edge">
<title>A3&#45;&gt;A4</title>
<path fill="none" stroke="#000000" d="M143.3206,-724.7733C151.2251,-713.3254 161.5555,-698.3641 170.3664,-685.6036"/>
<polygon fill="#000000" stroke="#000000" points="176.1749,-677.1912 174.196,-687.977 173.334,-681.3057 170.493,-685.4202 170.493,-685.4202 170.493,-685.4202 173.334,-681.3057 166.7899,-682.8633 176.1749,-677.1912 176.1749,-677.1912"/>
<text text-anchor="middle" x="174.1285" y="-698" font-family="Helvetica,sans-Serif" font-size="10.00" fill="#000000">[Yes]</text>
</g>
<!-- A4&#45;&gt;A2 -->
<g id="edge6" class="edge">
<title>A4&#45;&gt;A2</title>
<path fill="none" stroke="#000000" d="M151.7258,-640.8111C142.8792,-635.6539 133.7721,-629.6193 126.0585,-623 118.8462,-616.8108 112.0108,-609.1133 106.164,-601.7078"/>
<polygon fill="#000000" stroke="#000000" points="99.7913,-593.2564 109.405,-598.5316 102.8016,-597.2487 105.812,-601.2409 105.812,-601.2409 105.812,-601.2409 102.8016,-597.2487 102.219,-603.9502 99.7913,-593.2564 99.7913,-593.2564"/>
<text text-anchor="middle" x="161.574" y="-614" font-family="Helvetica,sans-Serif" font-size="10.00" fill="#000000">[Does Not Exist]</text>
</g>
<!-- A5 -->
<g id="node6" class="node">
<title>A5</title>
<path fill="none" stroke="#000000" d="M261.7095,-593C261.7095,-593 177.7615,-593 177.7615,-593 171.7615,-593 165.7615,-587 165.7615,-581 165.7615,-581 165.7615,-569 165.7615,-569 165.7615,-563 171.7615,-557 177.7615,-557 177.7615,-557 261.7095,-557 261.7095,-557 267.7095,-557 273.7095,-563 273.7095,-569 273.7095,-569 273.7095,-581 273.7095,-581 273.7095,-587 267.7095,-593 261.7095,-593"/>
<text text-anchor="middle" x="219.7355" y="-578" font-family="Helvetica,sans-Serif" font-size="10.00" fill="#000000">{Get Intervals that</text>
<text text-anchor="middle" x="219.7355" y="-566" font-family="Helvetica,sans-Serif" font-size="10.00" fill="#000000">match Date}</text>
</g>
<!-- A4&#45;&gt;A5 -->
<g id="edge7" class="edge">
<title>A4&#45;&gt;A5</title>
<path fill="none" stroke="#000000" d="M195.462,-640.7733C199.565,-629.6557 204.8908,-615.2244 209.508,-602.7132"/>
<polygon fill="#000000" stroke="#000000" points="213.0221,-593.1912 213.7815,-604.1307 211.2909,-597.8819 209.5598,-602.5727 209.5598,-602.5727 209.5598,-602.5727 211.2909,-597.8819 205.3381,-601.0147 213.0221,-593.1912 213.0221,-593.1912"/>
<text text-anchor="middle" x="221.848" y="-614" font-family="Helvetica,sans-Serif" font-size="10.00" fill="#000000">[Exists]</text>
</g>
<!-- A6 -->
<g id="node7" class="node">
<title>A6</title>
<path fill="none" stroke="#000000" d="M268.3192,-520C268.3192,-520 169.1518,-520 169.1518,-520 163.1518,-520 157.1518,-514 157.1518,-508 157.1518,-508 157.1518,-496 157.1518,-496 157.1518,-490 163.1518,-484 169.1518,-484 169.1518,-484 268.3192,-484 268.3192,-484 274.3192,-484 280.3192,-490 280.3192,-496 280.3192,-496 280.3192,-508 280.3192,-508 280.3192,-514 274.3192,-520 268.3192,-520"/>
<text text-anchor="middle" x="218.7355" y="-505" font-family="Helvetica,sans-Serif" font-size="10.00" fill="#000000">{Get DayOfWeek that</text>
<text text-anchor="middle" x="218.7355" y="-493" font-family="Helvetica,sans-Serif" font-size="10.00" fill="#000000">match Date}</text>
</g>
<!-- A5&#45;&gt;A6 -->
<g id="edge8" class="edge">
<title>A5&#45;&gt;A6</title>
<path fill="none" stroke="#000000" d="M219.4883,-556.9551C219.3777,-548.8828 219.2448,-539.1764 219.1216,-530.1817"/>
<polygon fill="#000000" stroke="#000000" points="218.9833,-520.0904 223.62,-530.0277 219.0518,-525.0899 219.1204,-530.0894 219.1204,-530.0894 219.1204,-530.0894 219.0518,-525.0899 214.6208,-530.1511 218.9833,-520.0904 218.9833,-520.0904"/>
</g>
<!-- A7 -->
<g id="node8" class="node">
<title>A7</title>
<path fill="none" stroke="#000000" d="M257.4898,-447C257.4898,-447 175.9812,-447 175.9812,-447 169.9812,-447 163.9812,-441 163.9812,-435 163.9812,-435 163.9812,-423 163.9812,-423 163.9812,-417 169.9812,-411 175.9812,-411 175.9812,-411 257.4898,-411 257.4898,-411 263.4898,-411 269.4898,-417 269.4898,-423 269.4898,-423 269.4898,-435 269.4898,-435 269.4898,-441 263.4898,-447 257.4898,-447"/>
<text text-anchor="middle" x="216.7355" y="-432" font-family="Helvetica,sans-Serif" font-size="10.00" fill="#000000">{Get By Date that</text>
<text text-anchor="middle" x="216.7355" y="-420" font-family="Helvetica,sans-Serif" font-size="10.00" fill="#000000">match Date}</text>
</g>
<!-- A6&#45;&gt;A7 -->
<g id="edge9" class="edge">
<title>A6&#45;&gt;A7</title>
<path fill="none" stroke="#000000" d="M218.2411,-483.9551C218.02,-475.8828 217.754,-466.1764 217.5076,-457.1817"/>
<polygon fill="#000000" stroke="#000000" points="217.2311,-447.0904 222.0034,-456.9633 217.3681,-452.0885 217.5051,-457.0866 217.5051,-457.0866 217.5051,-457.0866 217.3681,-452.0885 213.0068,-457.2099 217.2311,-447.0904 217.2311,-447.0904"/>
</g>
<!-- A8 -->
<g id="node9" class="node">
<title>A8</title>
<path fill="none" stroke="#000000" d="M275.0446,-374C275.0446,-374 148.4264,-374 148.4264,-374 142.4264,-374 136.4264,-368 136.4264,-362 136.4264,-362 136.4264,-330 136.4264,-330 136.4264,-324 142.4264,-318 148.4264,-318 148.4264,-318 275.0446,-318 275.0446,-318 281.0446,-318 287.0446,-324 287.0446,-330 287.0446,-330 287.0446,-362 287.0446,-362 287.0446,-368 281.0446,-374 275.0446,-374"/>
<text text-anchor="middle" x="211.7355" y="-361" font-family="Helvetica,sans-Serif" font-size="10.00" fill="#000000">{Merge all three</text>
<text text-anchor="middle" x="211.7355" y="-349" font-family="Helvetica,sans-Serif" font-size="10.00" fill="#000000">together using</text>
<text text-anchor="middle" x="211.7355" y="-337" font-family="Helvetica,sans-Serif" font-size="10.00" fill="#000000">priority as follows:</text>
<text text-anchor="middle" x="211.7355" y="-325" font-family="Helvetica,sans-Serif" font-size="10.00" fill="#000000">Date&gt;DayOfWeek&gt;Interval}</text>
</g>
<!-- A7&#45;&gt;A8 -->
<g id="edge10" class="edge">
<title>A7&#45;&gt;A8</title>
<path fill="none" stroke="#000000" d="M215.6506,-410.9902C215.1739,-403.0772 214.5949,-393.4653 214.0299,-384.0873"/>
<polygon fill="#000000" stroke="#000000" points="213.4279,-374.0946 218.5212,-383.8059 213.7287,-379.0855 214.0294,-384.0765 214.0294,-384.0765 214.0294,-384.0765 213.7287,-379.0855 209.5375,-384.3471 213.4279,-374.0946 213.4279,-374.0946"/>
</g>
<!-- A9 -->
<g id="node10" class="node">
<title>A9</title>
<path fill="none" stroke="#000000" d="M240.9289,-281C240.9289,-281 150.5421,-281 150.5421,-281 144.5421,-281 138.5421,-275 138.5421,-269 138.5421,-269 138.5421,-225 138.5421,-225 138.5421,-219 144.5421,-213 150.5421,-213 150.5421,-213 240.9289,-213 240.9289,-213 246.9289,-213 252.9289,-219 252.9289,-225 252.9289,-225 252.9289,-269 252.9289,-269 252.9289,-275 246.9289,-281 240.9289,-281"/>
<text text-anchor="middle" x="195.7355" y="-268" font-family="Helvetica,sans-Serif" font-size="10.00" fill="#000000">{If a start time does</text>
<text text-anchor="middle" x="195.7355" y="-256" font-family="Helvetica,sans-Serif" font-size="10.00" fill="#000000">not have a length</text>
<text text-anchor="middle" x="195.7355" y="-244" font-family="Helvetica,sans-Serif" font-size="10.00" fill="#000000">its concidered to be</text>
<text text-anchor="middle" x="195.7355" y="-232" font-family="Helvetica,sans-Serif" font-size="10.00" fill="#000000">in affect until a</text>
<text text-anchor="middle" x="195.7355" y="-220" font-family="Helvetica,sans-Serif" font-size="10.00" fill="#000000">later start}</text>
</g>
<!-- A8&#45;&gt;A9 -->
<g id="edge11" class="edge">
<title>A8&#45;&gt;A9</title>
<path fill="none" stroke="#000000" d="M207.1933,-317.8954C205.8508,-309.5885 204.3474,-300.2862 202.8826,-291.2227"/>
<polygon fill="#000000" stroke="#000000" points="201.2558,-281.1568 207.2937,-290.3107 202.0536,-286.0928 202.8513,-291.0287 202.8513,-291.0287 202.8513,-291.0287 202.0536,-286.0928 198.409,-291.7467 201.2558,-281.1568 201.2558,-281.1568"/>
</g>
<!-- A10 -->
<g id="node11" class="node">
<title>A10</title>
<path fill="none" stroke="#000000" d="M230.1995,-176C230.1995,-176 141.2715,-176 141.2715,-176 135.2715,-176 129.2715,-170 129.2715,-164 129.2715,-164 129.2715,-152 129.2715,-152 129.2715,-146 135.2715,-140 141.2715,-140 141.2715,-140 230.1995,-140 230.1995,-140 236.1995,-140 242.1995,-146 242.1995,-152 242.1995,-152 242.1995,-164 242.1995,-164 242.1995,-170 236.1995,-176 230.1995,-176"/>
<text text-anchor="middle" x="185.7355" y="-161" font-family="Helvetica,sans-Serif" font-size="10.00" fill="#000000">{Fill In Blank zones</text>
<text text-anchor="middle" x="185.7355" y="-149" font-family="Helvetica,sans-Serif" font-size="10.00" fill="#000000">with default value}</text>
</g>
<!-- A9&#45;&gt;A10 -->
<g id="edge12" class="edge">
<title>A9&#45;&gt;A10</title>
<path fill="none" stroke="#000000" d="M191.8978,-212.8448C190.9064,-204.0211 189.8504,-194.623 188.8978,-186.1449"/>
<polygon fill="#000000" stroke="#000000" points="187.7591,-176.0105 193.3477,-185.4455 188.3175,-180.9792 188.8758,-185.9479 188.8758,-185.9479 188.8758,-185.9479 188.3175,-180.9792 184.4039,-186.4504 187.7591,-176.0105 187.7591,-176.0105"/>
</g>
<!-- A11 -->
<g id="node12" class="node">
<title>A11</title>
<path fill="none" stroke="#000000" d="M221.6445,-103C221.6445,-103 143.8265,-103 143.8265,-103 137.8265,-103 131.8265,-97 131.8265,-91 131.8265,-91 131.8265,-79 131.8265,-79 131.8265,-73 137.8265,-67 143.8265,-67 143.8265,-67 221.6445,-67 221.6445,-67 227.6445,-67 233.6445,-73 233.6445,-79 233.6445,-79 233.6445,-91 233.6445,-91 233.6445,-97 227.6445,-103 221.6445,-103"/>
<text text-anchor="middle" x="182.7355" y="-88" font-family="Helvetica,sans-Serif" font-size="10.00" fill="#000000">{Return Success</text>
<text text-anchor="middle" x="182.7355" y="-76" font-family="Helvetica,sans-Serif" font-size="10.00" fill="#000000">Model}</text>
</g>
<!-- A10&#45;&gt;A11 -->
<g id="edge13" class="edge">
<title>A10&#45;&gt;A11</title>
<path fill="none" stroke="#000000" d="M184.9939,-139.9551C184.6622,-131.8828 184.2633,-122.1764 183.8937,-113.1817"/>
<polygon fill="#000000" stroke="#000000" points="183.4789,-103.0904 188.3859,-112.8971 183.6843,-108.0861 183.8896,-113.0819 183.8896,-113.0819 183.8896,-113.0819 183.6843,-108.0861 179.3934,-113.2667 183.4789,-103.0904 183.4789,-103.0904"/>
</g>
<!-- A11&#45;&gt;A12 -->
<g id="edge15" class="edge">
<title>A11&#45;&gt;A12</title>
<path fill="none" stroke="#000000" d="M164.9663,-66.9733C154.7841,-56.6435 142.0365,-43.7112 131.8046,-33.3309"/>
<polygon fill="#000000" stroke="#000000" points="124.5547,-25.976 134.7795,-29.9387 128.0647,-29.5369 131.5747,-33.0978 131.5747,-33.0978 131.5747,-33.0978 128.0647,-29.5369 128.3699,-36.2568 124.5547,-25.976 124.5547,-25.976"/>
</g>
</g>
</svg>
