<?xml version="1.0" encoding="UTF-8" standalone="no"?>
<!DOCTYPE svg PUBLIC "-//W3C//DTD SVG 1.1//EN"
 "http://www.w3.org/Graphics/SVG/1.1/DTD/svg11.dtd">
<!-- Generated by graphviz version 2.40.1 (20161225.0304)
 -->
<!-- Title: G Pages: 1 -->
<svg width="319pt" height="130pt"
 viewBox="0.00 0.00 319.40 130.00" xmlns="http://www.w3.org/2000/svg" xmlns:xlink="http://www.w3.org/1999/xlink">
<g id="graph0" class="graph" transform="scale(1 1) rotate(0) translate(4 126)">
<title>G</title>
<polygon fill="#ffffff" stroke="transparent" points="-4,4 -4,-126 315.4,-126 315.4,4 -4,4"/>
<!-- A0 -->
<g id="node1" class="node">
<title>A0</title>
<polygon fill="none" stroke="#000000" points="166.9617,-122 92.5943,-122 92.5943,-86 166.9617,-86 166.9617,-122"/>
<text text-anchor="middle" x="129.778" y="-101" font-family="Helvetica,sans-Serif" font-size="10.00" fill="#000000">Schedules</text>
</g>
<!-- A1 -->
<g id="node2" class="node">
<title>A1</title>
<polygon fill="none" stroke="#000000" points="63.3355,-36 .2205,-36 .2205,0 63.3355,0 63.3355,-36"/>
<text text-anchor="middle" x="31.778" y="-15" font-family="Helvetica,sans-Serif" font-size="10.00" fill="#000000">Devices</text>
</g>
<!-- A0&#45;&gt;A1 -->
<g id="edge1" class="edge">
<title>A0&#45;&gt;A1</title>
<path fill="none" stroke="#000000" d="M99.9032,-77.7834C87.3335,-66.7528 72.7721,-53.9744 60.3462,-43.07"/>
<polygon fill="none" stroke="#000000" points="99.9752,-77.8465 107.1233,-78.7975 108.9947,-85.7616 101.8466,-84.8106 99.9752,-77.8465"/>
<polygon fill="#000000" stroke="#000000" points="52.5313,-36.2121 63.0158,-39.4257 56.2895,-39.5101 60.0476,-42.808 60.0476,-42.808 60.0476,-42.808 56.2895,-39.5101 57.0794,-46.1904 52.5313,-36.2121 52.5313,-36.2121"/>
<text text-anchor="middle" x="71.7305" y="-38.8149" font-family="Helvetica,sans-Serif" font-size="10.00" fill="#000000">1</text>
<text text-anchor="middle" x="89.7955" y="-77.1588" font-family="Helvetica,sans-Serif" font-size="10.00" fill="#000000">*</text>
</g>
<!-- A2 -->
<g id="node3" class="node">
<title>A2</title>
<polygon fill="none" stroke="#000000" points="177.5762,-36 81.9798,-36 81.9798,0 177.5762,0 177.5762,-36"/>
<text text-anchor="middle" x="129.778" y="-15" font-family="Helvetica,sans-Serif" font-size="10.00" fill="#000000">ScheduleStarts</text>
</g>
<!-- A0&#45;&gt;A2 -->
<g id="edge2" class="edge">
<title>A0&#45;&gt;A2</title>
<path fill="none" stroke="#000000" d="M129.778,-73.5205C129.778,-64.6543 129.778,-55.01 129.778,-46.2849"/>
<polygon fill="none" stroke="#000000" points="129.7781,-73.7616 133.778,-79.7616 129.778,-85.7616 125.778,-79.7616 129.7781,-73.7616"/>
<polygon fill="#000000" stroke="#000000" points="129.778,-36.2121 134.2781,-46.2121 129.778,-41.2121 129.7781,-46.2121 129.7781,-46.2121 129.7781,-46.2121 129.778,-41.2121 125.2781,-46.2121 129.778,-36.2121 129.778,-36.2121"/>
<text text-anchor="middle" x="138.2304" y="-51.3383" font-family="Helvetica,sans-Serif" font-size="10.00" fill="#000000">*</text>
<text text-anchor="middle" x="121.3256" y="-64.6355" font-family="Helvetica,sans-Serif" font-size="10.00" fill="#000000">1</text>
</g>
<!-- A3 -->
<g id="node4" class="node">
<title>A3</title>
<polygon fill="none" stroke="#000000" points="311.5223,-36 196.0337,-36 196.0337,0 311.5223,0 311.5223,-36"/>
<text text-anchor="middle" x="253.778" y="-15" font-family="Helvetica,sans-Serif" font-size="10.00" fill="#000000">ScheduleProperties</text>
</g>
<!-- A0&#45;&gt;A3 -->
<g id="edge3" class="edge">
<title>A0&#45;&gt;A3</title>
<path fill="none" stroke="#000000" d="M165.7068,-79.0817C182.6235,-67.3491 202.7063,-53.4207 219.4196,-41.8292"/>
<polygon fill="none" stroke="#000000" points="165.6331,-79.1328 162.9824,-85.839 155.7725,-85.9716 158.4232,-79.2653 165.6331,-79.1328"/>
<polygon fill="#000000" stroke="#000000" points="227.8178,-36.0047 222.1652,-45.4014 223.7092,-38.8542 219.6006,-41.7037 219.6006,-41.7037 219.6006,-41.7037 223.7092,-38.8542 217.036,-38.006 227.8178,-36.0047 227.8178,-36.0047"/>
<text text-anchor="middle" x="217.7402" y="-50.2802" font-family="Helvetica,sans-Serif" font-size="10.00" fill="#000000">*</text>
<text text-anchor="middle" x="165.85" y="-65.6961" font-family="Helvetica,sans-Serif" font-size="10.00" fill="#000000">1</text>
</g>
</g>
</svg>
