<?xml version="1.0" encoding="UTF-8" standalone="no"?>
<!DOCTYPE svg PUBLIC "-//W3C//DTD SVG 1.1//EN"
 "http://www.w3.org/Graphics/SVG/1.1/DTD/svg11.dtd">
<!-- Generated by graphviz version 2.40.1 (20161225.0304)
 -->
<!-- Title: G Pages: 1 -->
<svg width="238pt" height="130pt"
 viewBox="0.00 0.00 237.52 130.00" xmlns="http://www.w3.org/2000/svg" xmlns:xlink="http://www.w3.org/1999/xlink">
<g id="graph0" class="graph" transform="scale(1 1) rotate(0) translate(4 126)">
<title>G</title>
<polygon fill="#ffffff" stroke="transparent" points="-4,4 -4,-126 233.521,-126 233.521,4 -4,4"/>
<!-- A0 -->
<g id="node1" class="node">
<title>A0</title>
<polygon fill="none" stroke="#000000" points="147.0827,-122 72.7153,-122 72.7153,-86 147.0827,-86 147.0827,-122"/>
<text text-anchor="middle" x="109.899" y="-101" font-family="Helvetica,sans-Serif" font-size="10.00" fill="#000000">Schedules</text>
</g>
<!-- A1 -->
<g id="node2" class="node">
<title>A1</title>
<polygon fill="none" stroke="#000000" points="95.6972,-36 .1008,-36 .1008,0 95.6972,0 95.6972,-36"/>
<text text-anchor="middle" x="47.899" y="-15" font-family="Helvetica,sans-Serif" font-size="10.00" fill="#000000">ScheduleStarts</text>
</g>
<!-- A0&#45;&gt;A1 -->
<g id="edge1" class="edge">
<title>A0&#45;&gt;A1</title>
<path fill="none" stroke="#000000" d="M89.6148,-75.8639C82.3482,-65.7844 74.1858,-54.4623 67.0208,-44.5238"/>
<polygon fill="none" stroke="#000000" points="89.7327,-76.0275 96.4863,-78.5553 96.7504,-85.7616 89.9969,-83.2338 89.7327,-76.0275"/>
<polygon fill="#000000" stroke="#000000" points="61.0287,-36.2121 70.527,-41.6923 63.9527,-40.268 66.8767,-44.3239 66.8767,-44.3239 66.8767,-44.3239 63.9527,-40.268 63.2264,-46.9555 61.0287,-36.2121 61.0287,-36.2121"/>
<text text-anchor="middle" x="78.4852" y="-42.9727" font-family="Helvetica,sans-Serif" font-size="10.00" fill="#000000">*</text>
<text text-anchor="middle" x="79.2938" y="-73.0011" font-family="Helvetica,sans-Serif" font-size="10.00" fill="#000000">1</text>
</g>
<!-- A2 -->
<g id="node3" class="node">
<title>A2</title>
<polygon fill="none" stroke="#000000" points="229.6433,-36 114.1547,-36 114.1547,0 229.6433,0 229.6433,-36"/>
<text text-anchor="middle" x="171.899" y="-15" font-family="Helvetica,sans-Serif" font-size="10.00" fill="#000000">ScheduleProperties</text>
</g>
<!-- A0&#45;&gt;A2 -->
<g id="edge2" class="edge">
<title>A0&#45;&gt;A2</title>
<path fill="none" stroke="#000000" d="M130.1832,-75.8639C137.4498,-65.7844 145.6122,-54.4623 152.7772,-44.5238"/>
<polygon fill="none" stroke="#000000" points="130.0653,-76.0275 129.8011,-83.2338 123.0476,-85.7616 123.3117,-78.5553 130.0653,-76.0275"/>
<polygon fill="#000000" stroke="#000000" points="158.7693,-36.2121 156.5716,-46.9555 155.8453,-40.268 152.9213,-44.3239 152.9213,-44.3239 152.9213,-44.3239 155.8453,-40.268 149.271,-41.6923 158.7693,-36.2121 158.7693,-36.2121"/>
<text text-anchor="middle" x="155.0255" y="-52.8586" font-family="Helvetica,sans-Serif" font-size="10.00" fill="#000000">*</text>
<text text-anchor="middle" x="126.7915" y="-63.1151" font-family="Helvetica,sans-Serif" font-size="10.00" fill="#000000">1</text>
</g>
</g>
</svg>
