<?xml version="1.0" encoding="UTF-8" standalone="no"?>
<!DOCTYPE svg PUBLIC "-//W3C//DTD SVG 1.1//EN"
 "http://www.w3.org/Graphics/SVG/1.1/DTD/svg11.dtd">
<!-- Generated by graphviz version 2.40.1 (20161225.0304)
 -->
<!-- Title: G Pages: 1 -->
<svg width="400pt" height="433pt"
 viewBox="0.00 0.00 399.92 433.00" xmlns="http://www.w3.org/2000/svg" xmlns:xlink="http://www.w3.org/1999/xlink">
<g id="graph0" class="graph" transform="scale(1 1) rotate(0) translate(4 429)">
<title>G</title>
<polygon fill="#ffffff" stroke="transparent" points="-4,4 -4,-429 395.92,-429 395.92,4 -4,4"/>
<!-- A0 -->
<g id="node1" class="node">
<title>A0</title>
<ellipse fill="none" stroke="#000000" cx="57.84" cy="-414" rx="11" ry="11"/>
</g>
<!-- A1 -->
<g id="node2" class="node">
<title>A1</title>
<path fill="none" stroke="#000000" d="M94.8061,-355C94.8061,-355 20.8739,-355 20.8739,-355 14.8739,-355 8.8739,-349 8.8739,-343 8.8739,-343 8.8739,-331 8.8739,-331 8.8739,-325 14.8739,-319 20.8739,-319 20.8739,-319 94.8061,-319 94.8061,-319 100.8061,-319 106.8061,-325 106.8061,-331 106.8061,-331 106.8061,-343 106.8061,-343 106.8061,-349 100.8061,-355 94.8061,-355"/>
<text text-anchor="middle" x="57.84" y="-334" font-family="Helvetica,sans-Serif" font-size="10.00" fill="#000000">{Is Model Valid}</text>
</g>
<!-- A0&#45;&gt;A1 -->
<g id="edge1" class="edge">
<title>A0&#45;&gt;A1</title>
<path fill="none" stroke="#000000" d="M57.84,-402.9678C57.84,-393.124 57.84,-378.2813 57.84,-365.1664"/>
<polygon fill="#000000" stroke="#000000" points="57.84,-355.1474 62.3401,-365.1473 57.84,-360.1474 57.8401,-365.1474 57.8401,-365.1474 57.8401,-365.1474 57.84,-360.1474 53.3401,-365.1474 57.84,-355.1474 57.84,-355.1474"/>
<text text-anchor="middle" x="90.624" y="-376" font-family="Helvetica,sans-Serif" font-size="10.00" fill="#000000">[New Request]</text>
</g>
<!-- A2 -->
<g id="node3" class="node">
<title>A2</title>
<path fill="none" stroke="#000000" d="M107.5204,-103C107.5204,-103 12.1596,-103 12.1596,-103 6.1596,-103 .1596,-97 .1596,-91 .1596,-91 .1596,-79 .1596,-79 .1596,-73 6.1596,-67 12.1596,-67 12.1596,-67 107.5204,-67 107.5204,-67 113.5204,-67 119.5204,-73 119.5204,-79 119.5204,-79 119.5204,-91 119.5204,-91 119.5204,-97 113.5204,-103 107.5204,-103"/>
<text text-anchor="middle" x="59.84" y="-82" font-family="Helvetica,sans-Serif" font-size="10.00" fill="#000000">{Return Error Model}</text>
</g>
<!-- A1&#45;&gt;A2 -->
<g id="edge2" class="edge">
<title>A1&#45;&gt;A2</title>
<path fill="none" stroke="#000000" d="M57.9838,-318.8768C58.3275,-275.5739 59.1986,-165.8207 59.6135,-113.5374"/>
<polygon fill="#000000" stroke="#000000" points="59.6948,-103.2976 64.1152,-113.333 59.6551,-108.2974 59.6153,-113.2973 59.6153,-113.2973 59.6153,-113.2973 59.6551,-108.2974 55.1155,-113.2615 59.6948,-103.2976 59.6948,-103.2976"/>
<text text-anchor="middle" x="69.008" y="-208" font-family="Helvetica,sans-Serif" font-size="10.00" fill="#000000">[No]</text>
</g>
<!-- A3 -->
<g id="node4" class="node">
<title>A3</title>
<path fill="none" stroke="#000000" d="M187.4821,-271C187.4821,-271 82.1979,-271 82.1979,-271 76.1979,-271 70.1979,-265 70.1979,-259 70.1979,-259 70.1979,-247 70.1979,-247 70.1979,-241 76.1979,-235 82.1979,-235 82.1979,-235 187.4821,-235 187.4821,-235 193.4821,-235 199.4821,-241 199.4821,-247 199.4821,-247 199.4821,-259 199.4821,-259 199.4821,-265 193.4821,-271 187.4821,-271"/>
<text text-anchor="middle" x="134.84" y="-256" font-family="Helvetica,sans-Serif" font-size="10.00" fill="#000000">{Does Model Schedule</text>
<text text-anchor="middle" x="134.84" y="-244" font-family="Helvetica,sans-Serif" font-size="10.00" fill="#000000">Key Exist}</text>
</g>
<!-- A1&#45;&gt;A3 -->
<g id="edge3" class="edge">
<title>A1&#45;&gt;A3</title>
<path fill="none" stroke="#000000" d="M74.5479,-318.7733C85.2435,-307.1053 99.2849,-291.7874 111.1259,-278.8699"/>
<polygon fill="#000000" stroke="#000000" points="118.1648,-271.1912 114.7247,-281.6035 114.7861,-274.877 111.4075,-278.5627 111.4075,-278.5627 111.4075,-278.5627 114.7861,-274.877 108.0903,-275.522 118.1648,-271.1912 118.1648,-271.1912"/>
<text text-anchor="middle" x="112.233" y="-292" font-family="Helvetica,sans-Serif" font-size="10.00" fill="#000000">[Yes]</text>
</g>
<!-- A4 -->
<g id="node5" class="node">
<title>A4</title>
<ellipse fill="none" stroke="#000000" cx="123.84" cy="-15" rx="11" ry="11"/>
<ellipse fill="none" stroke="#000000" cx="123.84" cy="-15" rx="15" ry="15"/>
</g>
<!-- A2&#45;&gt;A4 -->
<g id="edge5" class="edge">
<title>A2&#45;&gt;A4</title>
<path fill="none" stroke="#000000" d="M76.3216,-66.9733C85.5564,-56.8726 97.0664,-44.2836 106.4454,-34.0254"/>
<polygon fill="#000000" stroke="#000000" points="113.426,-26.3903 109.9994,-36.8071 110.0521,-30.0805 106.6783,-33.7706 106.6783,-33.7706 106.6783,-33.7706 110.0521,-30.0805 103.3571,-30.7341 113.426,-26.3903 113.426,-26.3903"/>
</g>
<!-- A3&#45;&gt;A2 -->
<g id="edge4" class="edge">
<title>A3&#45;&gt;A2</title>
<path fill="none" stroke="#000000" d="M123.3932,-234.9531C115.4126,-221.9311 104.842,-203.764 97.054,-187 85.7079,-162.577 75.4358,-133.647 68.5726,-112.8465"/>
<polygon fill="#000000" stroke="#000000" points="65.3971,-103.0609 72.764,-111.1836 66.9404,-107.8167 68.4837,-112.5726 68.4837,-112.5726 68.4837,-112.5726 66.9404,-107.8167 64.2034,-113.9616 65.3971,-103.0609 65.3971,-103.0609"/>
<text text-anchor="middle" x="108.233" y="-166" font-family="Helvetica,sans-Serif" font-size="10.00" fill="#000000">[Yes]</text>
</g>
<!-- A5 -->
<g id="node6" class="node">
<title>A5</title>
<path fill="none" stroke="#000000" d="M237.1013,-187C237.1013,-187 140.5787,-187 140.5787,-187 134.5787,-187 128.5787,-181 128.5787,-175 128.5787,-175 128.5787,-163 128.5787,-163 128.5787,-157 134.5787,-151 140.5787,-151 140.5787,-151 237.1013,-151 237.1013,-151 243.1013,-151 249.1013,-157 249.1013,-163 249.1013,-163 249.1013,-175 249.1013,-175 249.1013,-181 243.1013,-187 237.1013,-187"/>
<text text-anchor="middle" x="188.84" y="-172" font-family="Helvetica,sans-Serif" font-size="10.00" fill="#000000">{Insert Schedule Into</text>
<text text-anchor="middle" x="188.84" y="-160" font-family="Helvetica,sans-Serif" font-size="10.00" fill="#000000">Database}</text>
</g>
<!-- A3&#45;&gt;A5 -->
<g id="edge6" class="edge">
<title>A3&#45;&gt;A5</title>
<path fill="none" stroke="#000000" d="M146.5572,-234.7733C153.9165,-223.3254 163.5345,-208.3641 171.7377,-195.6036"/>
<polygon fill="#000000" stroke="#000000" points="177.1457,-187.1912 175.5234,-198.0364 174.4419,-191.3971 171.738,-195.603 171.738,-195.603 171.738,-195.603 174.4419,-191.3971 167.9527,-193.1695 177.1457,-187.1912 177.1457,-187.1912"/>
<text text-anchor="middle" x="174.008" y="-208" font-family="Helvetica,sans-Serif" font-size="10.00" fill="#000000">[No]</text>
</g>
<!-- A5&#45;&gt;A2 -->
<g id="edge7" class="edge">
<title>A5&#45;&gt;A2</title>
<path fill="none" stroke="#000000" d="M161.1663,-150.9799C142.2511,-138.663 116.9814,-122.2084 96.4097,-108.8128"/>
<polygon fill="#000000" stroke="#000000" points="87.9131,-103.2801 98.7486,-104.9659 92.1031,-106.0085 96.2931,-108.7369 96.2931,-108.7369 96.2931,-108.7369 92.1031,-106.0085 93.8375,-112.5079 87.9131,-103.2801 87.9131,-103.2801"/>
<text text-anchor="middle" x="148.231" y="-124" font-family="Helvetica,sans-Serif" font-size="10.00" fill="#000000">[Failed]</text>
</g>
<!-- A6 -->
<g id="node7" class="node">
<title>A6</title>
<path fill="none" stroke="#000000" d="M227.749,-103C227.749,-103 149.931,-103 149.931,-103 143.931,-103 137.931,-97 137.931,-91 137.931,-91 137.931,-79 137.931,-79 137.931,-73 143.931,-67 149.931,-67 149.931,-67 227.749,-67 227.749,-67 233.749,-67 239.749,-73 239.749,-79 239.749,-79 239.749,-91 239.749,-91 239.749,-97 233.749,-103 227.749,-103"/>
<text text-anchor="middle" x="188.84" y="-88" font-family="Helvetica,sans-Serif" font-size="10.00" fill="#000000">{Return Success</text>
<text text-anchor="middle" x="188.84" y="-76" font-family="Helvetica,sans-Serif" font-size="10.00" fill="#000000">Model}</text>
</g>
<!-- A5&#45;&gt;A6 -->
<g id="edge8" class="edge">
<title>A5&#45;&gt;A6</title>
<path fill="none" stroke="#000000" d="M188.84,-150.7733C188.84,-139.8758 188.84,-125.7946 188.84,-113.4587"/>
<polygon fill="#000000" stroke="#000000" points="188.84,-103.1912 193.3401,-113.1911 188.84,-108.1912 188.8401,-113.1912 188.8401,-113.1912 188.8401,-113.1912 188.84,-108.1912 184.3401,-113.1912 188.84,-103.1912 188.84,-103.1912"/>
<text text-anchor="middle" x="210.5125" y="-124" font-family="Helvetica,sans-Serif" font-size="10.00" fill="#000000">[Success]</text>
</g>
<!-- A7 -->
<g id="node8" class="node">
<title>A7</title>
<path fill="none" stroke="#000000" d="M380.0001,-103C380.0001,-103 269.6799,-103 269.6799,-103 263.6799,-103 257.6799,-97 257.6799,-91 257.6799,-91 257.6799,-79 257.6799,-79 257.6799,-73 263.6799,-67 269.6799,-67 269.6799,-67 380.0001,-67 380.0001,-67 386.0001,-67 392.0001,-73 392.0001,-79 392.0001,-79 392.0001,-91 392.0001,-91 392.0001,-97 386.0001,-103 380.0001,-103"/>
<text text-anchor="middle" x="324.84" y="-88" font-family="Helvetica,sans-Serif" font-size="10.00" fill="#000000">{Send Schedule Update</text>
<text text-anchor="middle" x="324.84" y="-76" font-family="Helvetica,sans-Serif" font-size="10.00" fill="#000000">Message}</text>
</g>
<!-- A5&#45;&gt;A7 -->
<g id="edge9" class="edge">
<title>A5&#45;&gt;A7</title>
<path fill="none" stroke="#000000" d="M218.0154,-150.9799C238.0461,-138.608 264.8359,-122.0614 286.5761,-108.6336"/>
<polygon fill="#000000" stroke="#000000" points="295.2436,-103.2801 289.1003,-112.3637 290.9896,-105.9076 286.7356,-108.5351 286.7356,-108.5351 286.7356,-108.5351 290.9896,-105.9076 284.3708,-104.7065 295.2436,-103.2801 295.2436,-103.2801"/>
<text text-anchor="middle" x="286.5125" y="-124" font-family="Helvetica,sans-Serif" font-size="10.00" fill="#000000">[Success]</text>
</g>
<!-- A6&#45;&gt;A4 -->
<g id="edge10" class="edge">
<title>A6&#45;&gt;A4</title>
<path fill="none" stroke="#000000" d="M172.1009,-66.9733C162.6289,-56.7726 150.8002,-44.0341 141.2241,-33.7214"/>
<polygon fill="#000000" stroke="#000000" points="134.4167,-26.3903 144.5188,-30.6562 137.819,-30.0543 141.2213,-33.7183 141.2213,-33.7183 141.2213,-33.7183 137.819,-30.0543 137.9237,-36.7803 134.4167,-26.3903 134.4167,-26.3903"/>
</g>
</g>
</svg>
