<?xml version="1.0" encoding="UTF-8" standalone="no"?>
<!DOCTYPE svg PUBLIC "-//W3C//DTD SVG 1.1//EN"
 "http://www.w3.org/Graphics/SVG/1.1/DTD/svg11.dtd">
<!-- Generated by graphviz version 2.40.1 (20161225.0304)
 -->
<!-- Title: G Pages: 1 -->
<svg width="398pt" height="433pt"
 viewBox="0.00 0.00 398.36 433.00" xmlns="http://www.w3.org/2000/svg" xmlns:xlink="http://www.w3.org/1999/xlink">
<g id="graph0" class="graph" transform="scale(1 1) rotate(0) translate(4 429)">
<title>G</title>
<polygon fill="#ffffff" stroke="transparent" points="-4,4 -4,-429 394.3605,-429 394.3605,4 -4,4"/>
<!-- A0 -->
<g id="node1" class="node">
<title>A0</title>
<ellipse fill="none" stroke="#000000" cx="64.84" cy="-414" rx="11" ry="11"/>
</g>
<!-- A1 -->
<g id="node2" class="node">
<title>A1</title>
<path fill="none" stroke="#000000" d="M101.8061,-355C101.8061,-355 27.8739,-355 27.8739,-355 21.8739,-355 15.8739,-349 15.8739,-343 15.8739,-343 15.8739,-331 15.8739,-331 15.8739,-325 21.8739,-319 27.8739,-319 27.8739,-319 101.8061,-319 101.8061,-319 107.8061,-319 113.8061,-325 113.8061,-331 113.8061,-331 113.8061,-343 113.8061,-343 113.8061,-349 107.8061,-355 101.8061,-355"/>
<text text-anchor="middle" x="64.84" y="-334" font-family="Helvetica,sans-Serif" font-size="10.00" fill="#000000">{Is Model Valid}</text>
</g>
<!-- A0&#45;&gt;A1 -->
<g id="edge1" class="edge">
<title>A0&#45;&gt;A1</title>
<path fill="none" stroke="#000000" d="M64.84,-402.9678C64.84,-393.124 64.84,-378.2813 64.84,-365.1664"/>
<polygon fill="#000000" stroke="#000000" points="64.84,-355.1474 69.3401,-365.1473 64.84,-360.1474 64.8401,-365.1474 64.8401,-365.1474 64.8401,-365.1474 64.84,-360.1474 60.3401,-365.1474 64.84,-355.1474 64.84,-355.1474"/>
<text text-anchor="middle" x="97.624" y="-376" font-family="Helvetica,sans-Serif" font-size="10.00" fill="#000000">[New Request]</text>
</g>
<!-- A2 -->
<g id="node3" class="node">
<title>A2</title>
<path fill="none" stroke="#000000" d="M107.5204,-103C107.5204,-103 12.1596,-103 12.1596,-103 6.1596,-103 .1596,-97 .1596,-91 .1596,-91 .1596,-79 .1596,-79 .1596,-73 6.1596,-67 12.1596,-67 12.1596,-67 107.5204,-67 107.5204,-67 113.5204,-67 119.5204,-73 119.5204,-79 119.5204,-79 119.5204,-91 119.5204,-91 119.5204,-97 113.5204,-103 107.5204,-103"/>
<text text-anchor="middle" x="59.84" y="-82" font-family="Helvetica,sans-Serif" font-size="10.00" fill="#000000">{Return Error Model}</text>
</g>
<!-- A1&#45;&gt;A2 -->
<g id="edge2" class="edge">
<title>A1&#45;&gt;A2</title>
<path fill="none" stroke="#000000" d="M64.4804,-318.8768C63.6212,-275.5739 61.4436,-165.8207 60.4062,-113.5374"/>
<polygon fill="#000000" stroke="#000000" points="60.203,-103.2976 64.9006,-113.2063 60.3023,-108.2966 60.4015,-113.2956 60.4015,-113.2956 60.4015,-113.2956 60.3023,-108.2966 55.9024,-113.3849 60.203,-103.2976 60.203,-103.2976"/>
<text text-anchor="middle" x="72.008" y="-208" font-family="Helvetica,sans-Serif" font-size="10.00" fill="#000000">[No]</text>
</g>
<!-- A3 -->
<g id="node4" class="node">
<title>A3</title>
<path fill="none" stroke="#000000" d="M194.4821,-271C194.4821,-271 89.1979,-271 89.1979,-271 83.1979,-271 77.1979,-265 77.1979,-259 77.1979,-259 77.1979,-247 77.1979,-247 77.1979,-241 83.1979,-235 89.1979,-235 89.1979,-235 194.4821,-235 194.4821,-235 200.4821,-235 206.4821,-241 206.4821,-247 206.4821,-247 206.4821,-259 206.4821,-259 206.4821,-265 200.4821,-271 194.4821,-271"/>
<text text-anchor="middle" x="141.84" y="-256" font-family="Helvetica,sans-Serif" font-size="10.00" fill="#000000">{Does Model Schedule</text>
<text text-anchor="middle" x="141.84" y="-244" font-family="Helvetica,sans-Serif" font-size="10.00" fill="#000000">Key Exist}</text>
</g>
<!-- A1&#45;&gt;A3 -->
<g id="edge3" class="edge">
<title>A1&#45;&gt;A3</title>
<path fill="none" stroke="#000000" d="M81.5479,-318.7733C92.2435,-307.1053 106.2849,-291.7874 118.1259,-278.8699"/>
<polygon fill="#000000" stroke="#000000" points="125.1648,-271.1912 121.7247,-281.6035 121.7861,-274.877 118.4075,-278.5627 118.4075,-278.5627 118.4075,-278.5627 121.7861,-274.877 115.0903,-275.522 125.1648,-271.1912 125.1648,-271.1912"/>
<text text-anchor="middle" x="119.233" y="-292" font-family="Helvetica,sans-Serif" font-size="10.00" fill="#000000">[Yes]</text>
</g>
<!-- A5 -->
<g id="node6" class="node">
<title>A5</title>
<ellipse fill="none" stroke="#000000" cx="123.84" cy="-15" rx="11" ry="11"/>
<ellipse fill="none" stroke="#000000" cx="123.84" cy="-15" rx="15" ry="15"/>
</g>
<!-- A2&#45;&gt;A5 -->
<g id="edge6" class="edge">
<title>A2&#45;&gt;A5</title>
<path fill="none" stroke="#000000" d="M76.3216,-66.9733C85.5564,-56.8726 97.0664,-44.2836 106.4454,-34.0254"/>
<polygon fill="#000000" stroke="#000000" points="113.426,-26.3903 109.9994,-36.8071 110.0521,-30.0805 106.6783,-33.7706 106.6783,-33.7706 106.6783,-33.7706 110.0521,-30.0805 103.3571,-30.7341 113.426,-26.3903 113.426,-26.3903"/>
</g>
<!-- A3&#45;&gt;A2 -->
<g id="edge5" class="edge">
<title>A3&#45;&gt;A2</title>
<path fill="none" stroke="#000000" d="M130.4873,-234.839C122.5134,-221.7633 111.8286,-203.5788 103.504,-187 91.1731,-162.4426 79.0261,-133.5806 70.6871,-112.8372"/>
<polygon fill="#000000" stroke="#000000" points="66.9152,-103.3607 74.7944,-110.9876 68.7643,-108.0062 70.6134,-112.6517 70.6134,-112.6517 70.6134,-112.6517 68.7643,-108.0062 66.4324,-114.3159 66.9152,-103.3607 66.9152,-103.3607"/>
<text text-anchor="middle" x="112.008" y="-166" font-family="Helvetica,sans-Serif" font-size="10.00" fill="#000000">[No]</text>
</g>
<!-- A4 -->
<g id="node5" class="node">
<title>A4</title>
<path fill="none" stroke="#000000" d="M234.6522,-187C234.6522,-187 143.0278,-187 143.0278,-187 137.0278,-187 131.0278,-181 131.0278,-175 131.0278,-175 131.0278,-163 131.0278,-163 131.0278,-157 137.0278,-151 143.0278,-151 143.0278,-151 234.6522,-151 234.6522,-151 240.6522,-151 246.6522,-157 246.6522,-163 246.6522,-163 246.6522,-175 246.6522,-175 246.6522,-181 240.6522,-187 234.6522,-187"/>
<text text-anchor="middle" x="188.84" y="-172" font-family="Helvetica,sans-Serif" font-size="10.00" fill="#000000">{Delete Schedule In</text>
<text text-anchor="middle" x="188.84" y="-160" font-family="Helvetica,sans-Serif" font-size="10.00" fill="#000000">Database}</text>
</g>
<!-- A3&#45;&gt;A4 -->
<g id="edge4" class="edge">
<title>A3&#45;&gt;A4</title>
<path fill="none" stroke="#000000" d="M152.0383,-234.7733C158.382,-223.4355 166.654,-208.6515 173.7484,-195.9723"/>
<polygon fill="#000000" stroke="#000000" points="178.6616,-187.1912 177.7058,-198.1153 176.2201,-191.5546 173.7787,-195.918 173.7787,-195.918 173.7787,-195.918 176.2201,-191.5546 169.8516,-193.7207 178.6616,-187.1912 178.6616,-187.1912"/>
<text text-anchor="middle" x="179.233" y="-208" font-family="Helvetica,sans-Serif" font-size="10.00" fill="#000000">[Yes]</text>
</g>
<!-- A4&#45;&gt;A2 -->
<g id="edge9" class="edge">
<title>A4&#45;&gt;A2</title>
<path fill="none" stroke="#000000" d="M161.1663,-150.9799C142.2511,-138.663 116.9814,-122.2084 96.4097,-108.8128"/>
<polygon fill="#000000" stroke="#000000" points="87.9131,-103.2801 98.7486,-104.9659 92.1031,-106.0085 96.2931,-108.7369 96.2931,-108.7369 96.2931,-108.7369 92.1031,-106.0085 93.8375,-112.5079 87.9131,-103.2801 87.9131,-103.2801"/>
<text text-anchor="middle" x="145.7265" y="-124" font-family="Helvetica,sans-Serif" font-size="10.00" fill="#000000">[Error]</text>
</g>
<!-- A6 -->
<g id="node7" class="node">
<title>A6</title>
<path fill="none" stroke="#000000" d="M227.749,-103C227.749,-103 149.931,-103 149.931,-103 143.931,-103 137.931,-97 137.931,-91 137.931,-91 137.931,-79 137.931,-79 137.931,-73 143.931,-67 149.931,-67 149.931,-67 227.749,-67 227.749,-67 233.749,-67 239.749,-73 239.749,-79 239.749,-79 239.749,-91 239.749,-91 239.749,-97 233.749,-103 227.749,-103"/>
<text text-anchor="middle" x="188.84" y="-88" font-family="Helvetica,sans-Serif" font-size="10.00" fill="#000000">{Return Success</text>
<text text-anchor="middle" x="188.84" y="-76" font-family="Helvetica,sans-Serif" font-size="10.00" fill="#000000">Model}</text>
</g>
<!-- A4&#45;&gt;A6 -->
<g id="edge7" class="edge">
<title>A4&#45;&gt;A6</title>
<path fill="none" stroke="#000000" d="M188.84,-150.7733C188.84,-139.8758 188.84,-125.7946 188.84,-113.4587"/>
<polygon fill="#000000" stroke="#000000" points="188.84,-103.1912 193.3401,-113.1911 188.84,-108.1912 188.8401,-113.1912 188.8401,-113.1912 188.8401,-113.1912 188.84,-108.1912 184.3401,-113.1912 188.84,-103.1912 188.84,-103.1912"/>
<text text-anchor="middle" x="210.5125" y="-124" font-family="Helvetica,sans-Serif" font-size="10.00" fill="#000000">[Success]</text>
</g>
<!-- A7 -->
<g id="node8" class="node">
<title>A7</title>
<path fill="none" stroke="#000000" d="M378.381,-103C378.381,-103 269.299,-103 269.299,-103 263.299,-103 257.299,-97 257.299,-91 257.299,-91 257.299,-79 257.299,-79 257.299,-73 263.299,-67 269.299,-67 269.299,-67 378.381,-67 378.381,-67 384.381,-67 390.381,-73 390.381,-79 390.381,-79 390.381,-91 390.381,-91 390.381,-97 384.381,-103 378.381,-103"/>
<text text-anchor="middle" x="323.84" y="-82" font-family="Helvetica,sans-Serif" font-size="10.00" fill="#000000">{Send Delete Message}</text>
</g>
<!-- A4&#45;&gt;A7 -->
<g id="edge8" class="edge">
<title>A4&#45;&gt;A7</title>
<path fill="none" stroke="#000000" d="M217.8009,-150.9799C237.6842,-138.608 264.2771,-122.0614 285.8574,-108.6336"/>
<polygon fill="#000000" stroke="#000000" points="294.4612,-103.2801 288.348,-112.384 290.2159,-105.9217 285.9706,-108.5632 285.9706,-108.5632 285.9706,-108.5632 290.2159,-105.9217 283.5932,-104.7425 294.4612,-103.2801 294.4612,-103.2801"/>
<text text-anchor="middle" x="285.5125" y="-124" font-family="Helvetica,sans-Serif" font-size="10.00" fill="#000000">[Success]</text>
</g>
<!-- A6&#45;&gt;A5 -->
<g id="edge10" class="edge">
<title>A6&#45;&gt;A5</title>
<path fill="none" stroke="#000000" d="M172.1009,-66.9733C162.6289,-56.7726 150.8002,-44.0341 141.2241,-33.7214"/>
<polygon fill="#000000" stroke="#000000" points="134.4167,-26.3903 144.5188,-30.6562 137.819,-30.0543 141.2213,-33.7183 141.2213,-33.7183 141.2213,-33.7183 137.819,-30.0543 137.9237,-36.7803 134.4167,-26.3903 134.4167,-26.3903"/>
</g>
</g>
</svg>
