<?xml version="1.0" encoding="UTF-8" standalone="no"?>
<!DOCTYPE svg PUBLIC "-//W3C//DTD SVG 1.1//EN"
 "http://www.w3.org/Graphics/SVG/1.1/DTD/svg11.dtd">
<!-- Generated by graphviz version 2.40.1 (20161225.0304)
 -->
<!-- Title: G Pages: 1 -->
<svg width="198pt" height="373pt"
 viewBox="0.00 0.00 197.79 373.00" xmlns="http://www.w3.org/2000/svg" xmlns:xlink="http://www.w3.org/1999/xlink">
<g id="graph0" class="graph" transform="scale(1 1) rotate(0) translate(4 369)">
<title>G</title>
<polygon fill="#ffffff" stroke="transparent" points="-4,4 -4,-369 193.7945,-369 193.7945,4 -4,4"/>
<!-- A0 -->
<g id="node1" class="node">
<title>A0</title>
<ellipse fill="none" stroke="#000000" cx="79.84" cy="-354" rx="11" ry="11"/>
</g>
<!-- A1 -->
<g id="node2" class="node">
<title>A1</title>
<path fill="none" stroke="#000000" d="M116.8061,-295C116.8061,-295 42.8739,-295 42.8739,-295 36.8739,-295 30.8739,-289 30.8739,-283 30.8739,-283 30.8739,-271 30.8739,-271 30.8739,-265 36.8739,-259 42.8739,-259 42.8739,-259 116.8061,-259 116.8061,-259 122.8061,-259 128.8061,-265 128.8061,-271 128.8061,-271 128.8061,-283 128.8061,-283 128.8061,-289 122.8061,-295 116.8061,-295"/>
<text text-anchor="middle" x="79.84" y="-274" font-family="Helvetica,sans-Serif" font-size="10.00" fill="#000000">{Is Model Valid}</text>
</g>
<!-- A0&#45;&gt;A1 -->
<g id="edge1" class="edge">
<title>A0&#45;&gt;A1</title>
<path fill="none" stroke="#000000" d="M79.84,-342.9678C79.84,-333.124 79.84,-318.2813 79.84,-305.1664"/>
<polygon fill="#000000" stroke="#000000" points="79.84,-295.1474 84.3401,-305.1473 79.84,-300.1474 79.8401,-305.1474 79.8401,-305.1474 79.8401,-305.1474 79.84,-300.1474 75.3401,-305.1474 79.84,-295.1474 79.84,-295.1474"/>
<text text-anchor="middle" x="112.624" y="-316" font-family="Helvetica,sans-Serif" font-size="10.00" fill="#000000">[New Request]</text>
</g>
<!-- A2 -->
<g id="node3" class="node">
<title>A2</title>
<path fill="none" stroke="#000000" d="M107.5204,-157C107.5204,-157 12.1596,-157 12.1596,-157 6.1596,-157 .1596,-151 .1596,-145 .1596,-145 .1596,-133 .1596,-133 .1596,-127 6.1596,-121 12.1596,-121 12.1596,-121 107.5204,-121 107.5204,-121 113.5204,-121 119.5204,-127 119.5204,-133 119.5204,-133 119.5204,-145 119.5204,-145 119.5204,-151 113.5204,-157 107.5204,-157"/>
<text text-anchor="middle" x="59.84" y="-136" font-family="Helvetica,sans-Serif" font-size="10.00" fill="#000000">{Return Error Model}</text>
</g>
<!-- A1&#45;&gt;A2 -->
<g id="edge2" class="edge">
<title>A1&#45;&gt;A2</title>
<path fill="none" stroke="#000000" d="M77.2253,-258.9589C73.8415,-235.6106 67.9087,-194.6738 63.9272,-167.2014"/>
<polygon fill="#000000" stroke="#000000" points="62.4553,-157.0455 68.3431,-166.2967 63.1725,-161.9938 63.8897,-166.9421 63.8897,-166.9421 63.8897,-166.9421 63.1725,-161.9938 59.4362,-167.5876 62.4553,-157.0455 62.4553,-157.0455"/>
<text text-anchor="middle" x="84.008" y="-232" font-family="Helvetica,sans-Serif" font-size="10.00" fill="#000000">[No]</text>
</g>
<!-- A4 -->
<g id="node5" class="node">
<title>A4</title>
<path fill="none" stroke="#000000" d="M175.5265,-211C175.5265,-211 100.1535,-211 100.1535,-211 94.1535,-211 88.1535,-205 88.1535,-199 88.1535,-199 88.1535,-187 88.1535,-187 88.1535,-181 94.1535,-175 100.1535,-175 100.1535,-175 175.5265,-175 175.5265,-175 181.5265,-175 187.5265,-181 187.5265,-187 187.5265,-187 187.5265,-199 187.5265,-199 187.5265,-205 181.5265,-211 175.5265,-211"/>
<text text-anchor="middle" x="137.84" y="-196" font-family="Helvetica,sans-Serif" font-size="10.00" fill="#000000">{Get Page From</text>
<text text-anchor="middle" x="137.84" y="-184" font-family="Helvetica,sans-Serif" font-size="10.00" fill="#000000">Database}</text>
</g>
<!-- A1&#45;&gt;A4 -->
<g id="edge4" class="edge">
<title>A1&#45;&gt;A4</title>
<path fill="none" stroke="#000000" d="M92.4251,-258.7733C100.3296,-247.3254 110.66,-232.3641 119.4709,-219.6036"/>
<polygon fill="#000000" stroke="#000000" points="125.2794,-211.1912 123.3005,-221.977 122.4385,-215.3057 119.5975,-219.4202 119.5975,-219.4202 119.5975,-219.4202 122.4385,-215.3057 115.8944,-216.8633 125.2794,-211.1912 125.2794,-211.1912"/>
<text text-anchor="middle" x="124.233" y="-232" font-family="Helvetica,sans-Serif" font-size="10.00" fill="#000000">[Yes]</text>
</g>
<!-- A3 -->
<g id="node4" class="node">
<title>A3</title>
<ellipse fill="none" stroke="#000000" cx="71.84" cy="-15" rx="11" ry="11"/>
<ellipse fill="none" stroke="#000000" cx="71.84" cy="-15" rx="15" ry="15"/>
</g>
<!-- A2&#45;&gt;A3 -->
<g id="edge3" class="edge">
<title>A2&#45;&gt;A3</title>
<path fill="none" stroke="#000000" d="M61.5849,-120.9693C63.648,-99.6502 67.0941,-64.0407 69.4157,-40.0507"/>
<polygon fill="#000000" stroke="#000000" points="70.3943,-29.939 73.91,-40.326 69.9126,-34.9157 69.431,-39.8925 69.431,-39.8925 69.431,-39.8925 69.9126,-34.9157 64.9519,-39.459 70.3943,-29.939 70.3943,-29.939"/>
</g>
<!-- A5 -->
<g id="node6" class="node">
<title>A5</title>
<path fill="none" stroke="#000000" d="M177.749,-103C177.749,-103 99.931,-103 99.931,-103 93.931,-103 87.931,-97 87.931,-91 87.931,-91 87.931,-79 87.931,-79 87.931,-73 93.931,-67 99.931,-67 99.931,-67 177.749,-67 177.749,-67 183.749,-67 189.749,-73 189.749,-79 189.749,-79 189.749,-91 189.749,-91 189.749,-97 183.749,-103 177.749,-103"/>
<text text-anchor="middle" x="138.84" y="-88" font-family="Helvetica,sans-Serif" font-size="10.00" fill="#000000">{Return Success</text>
<text text-anchor="middle" x="138.84" y="-76" font-family="Helvetica,sans-Serif" font-size="10.00" fill="#000000">Model}</text>
</g>
<!-- A4&#45;&gt;A5 -->
<g id="edge5" class="edge">
<title>A4&#45;&gt;A5</title>
<path fill="none" stroke="#000000" d="M138.0096,-174.6793C138.1657,-157.821 138.3996,-132.5651 138.5794,-113.147"/>
<polygon fill="#000000" stroke="#000000" points="138.6729,-103.0502 143.08,-113.0914 138.6265,-108.0499 138.5802,-113.0497 138.5802,-113.0497 138.5802,-113.0497 138.6265,-108.0499 134.0804,-113.008 138.6729,-103.0502 138.6729,-103.0502"/>
</g>
<!-- A5&#45;&gt;A3 -->
<g id="edge6" class="edge">
<title>A5&#45;&gt;A3</title>
<path fill="none" stroke="#000000" d="M121.5858,-66.9733C111.6988,-56.6435 99.3207,-43.7112 89.3853,-33.3309"/>
<polygon fill="#000000" stroke="#000000" points="82.3456,-25.976 92.5111,-30.0886 85.8029,-29.5881 89.2602,-33.2002 89.2602,-33.2002 89.2602,-33.2002 85.8029,-29.5881 86.0093,-36.3118 82.3456,-25.976 82.3456,-25.976"/>
</g>
</g>
</svg>
