<?xml version="1.0" encoding="UTF-8" standalone="no"?>
<!DOCTYPE svg PUBLIC "-//W3C//DTD SVG 1.1//EN"
 "http://www.w3.org/Graphics/SVG/1.1/DTD/svg11.dtd">
<!-- Generated by graphviz version 2.40.1 (20161225.0304)
 -->
<!-- Title: G Pages: 1 -->
<svg width="297pt" height="481pt"
 viewBox="0.00 0.00 296.85 481.00" xmlns="http://www.w3.org/2000/svg" xmlns:xlink="http://www.w3.org/1999/xlink">
<g id="graph0" class="graph" transform="scale(1 1) rotate(0) translate(4 477)">
<title>G</title>
<polygon fill="#ffffff" stroke="transparent" points="-4,4 -4,-477 292.8515,-477 292.8515,4 -4,4"/>
<!-- A0 -->
<g id="node1" class="node">
<title>A0</title>
<ellipse fill="none" stroke="#000000" cx="79.84" cy="-462" rx="11" ry="11"/>
</g>
<!-- A1 -->
<g id="node2" class="node">
<title>A1</title>
<path fill="none" stroke="#000000" d="M116.8061,-403C116.8061,-403 42.8739,-403 42.8739,-403 36.8739,-403 30.8739,-397 30.8739,-391 30.8739,-391 30.8739,-379 30.8739,-379 30.8739,-373 36.8739,-367 42.8739,-367 42.8739,-367 116.8061,-367 116.8061,-367 122.8061,-367 128.8061,-373 128.8061,-379 128.8061,-379 128.8061,-391 128.8061,-391 128.8061,-397 122.8061,-403 116.8061,-403"/>
<text text-anchor="middle" x="79.84" y="-382" font-family="Helvetica,sans-Serif" font-size="10.00" fill="#000000">{Is Model Valid}</text>
</g>
<!-- A0&#45;&gt;A1 -->
<g id="edge1" class="edge">
<title>A0&#45;&gt;A1</title>
<path fill="none" stroke="#000000" d="M79.84,-450.9678C79.84,-441.124 79.84,-426.2813 79.84,-413.1664"/>
<polygon fill="#000000" stroke="#000000" points="79.84,-403.1474 84.3401,-413.1473 79.84,-408.1474 79.8401,-413.1474 79.8401,-413.1474 79.8401,-413.1474 79.84,-408.1474 75.3401,-413.1474 79.84,-403.1474 79.84,-403.1474"/>
<text text-anchor="middle" x="112.624" y="-424" font-family="Helvetica,sans-Serif" font-size="10.00" fill="#000000">[New Request]</text>
</g>
<!-- A2 -->
<g id="node3" class="node">
<title>A2</title>
<path fill="none" stroke="#000000" d="M107.5204,-265C107.5204,-265 12.1596,-265 12.1596,-265 6.1596,-265 .1596,-259 .1596,-253 .1596,-253 .1596,-241 .1596,-241 .1596,-235 6.1596,-229 12.1596,-229 12.1596,-229 107.5204,-229 107.5204,-229 113.5204,-229 119.5204,-235 119.5204,-241 119.5204,-241 119.5204,-253 119.5204,-253 119.5204,-259 113.5204,-265 107.5204,-265"/>
<text text-anchor="middle" x="59.84" y="-244" font-family="Helvetica,sans-Serif" font-size="10.00" fill="#000000">{Return Error Model}</text>
</g>
<!-- A1&#45;&gt;A2 -->
<g id="edge2" class="edge">
<title>A1&#45;&gt;A2</title>
<path fill="none" stroke="#000000" d="M77.2253,-366.9589C73.8415,-343.6106 67.9087,-302.6738 63.9272,-275.2014"/>
<polygon fill="#000000" stroke="#000000" points="62.4553,-265.0455 68.3431,-274.2967 63.1725,-269.9938 63.8897,-274.9421 63.8897,-274.9421 63.8897,-274.9421 63.1725,-269.9938 59.4362,-275.5876 62.4553,-265.0455 62.4553,-265.0455"/>
<text text-anchor="middle" x="84.008" y="-340" font-family="Helvetica,sans-Serif" font-size="10.00" fill="#000000">[No]</text>
</g>
<!-- A4 -->
<g id="node5" class="node">
<title>A4</title>
<path fill="none" stroke="#000000" d="M195.4851,-319C195.4851,-319 100.1949,-319 100.1949,-319 94.1949,-319 88.1949,-313 88.1949,-307 88.1949,-307 88.1949,-295 88.1949,-295 88.1949,-289 94.1949,-283 100.1949,-283 100.1949,-283 195.4851,-283 195.4851,-283 201.4851,-283 207.4851,-289 207.4851,-295 207.4851,-295 207.4851,-307 207.4851,-307 207.4851,-313 201.4851,-319 195.4851,-319"/>
<text text-anchor="middle" x="147.84" y="-304" font-family="Helvetica,sans-Serif" font-size="10.00" fill="#000000">{Does Schedule Key</text>
<text text-anchor="middle" x="147.84" y="-292" font-family="Helvetica,sans-Serif" font-size="10.00" fill="#000000">Exist}</text>
</g>
<!-- A1&#45;&gt;A4 -->
<g id="edge4" class="edge">
<title>A1&#45;&gt;A4</title>
<path fill="none" stroke="#000000" d="M94.595,-366.7733C103.9514,-355.2154 116.207,-340.0761 126.6012,-327.2361"/>
<polygon fill="#000000" stroke="#000000" points="133.1138,-319.1912 130.3194,-329.7951 129.9678,-323.0774 126.8218,-326.9636 126.8218,-326.9636 126.8218,-326.9636 129.9678,-323.0774 123.3242,-324.1322 133.1138,-319.1912 133.1138,-319.1912"/>
<text text-anchor="middle" x="129.233" y="-340" font-family="Helvetica,sans-Serif" font-size="10.00" fill="#000000">[Yes]</text>
</g>
<!-- A3 -->
<g id="node4" class="node">
<title>A3</title>
<ellipse fill="none" stroke="#000000" cx="142.84" cy="-15" rx="11" ry="11"/>
<ellipse fill="none" stroke="#000000" cx="142.84" cy="-15" rx="15" ry="15"/>
</g>
<!-- A2&#45;&gt;A3 -->
<g id="edge3" class="edge">
<title>A2&#45;&gt;A3</title>
<path fill="none" stroke="#000000" d="M60.7895,-228.9537C62.5577,-204.0141 67.4837,-157.9106 80.84,-121 92.4041,-89.0424 113.6068,-55.783 127.9604,-35.2346"/>
<polygon fill="#000000" stroke="#000000" points="133.8292,-26.9927 131.6944,-37.7488 130.929,-31.0657 128.0287,-35.1386 128.0287,-35.1386 128.0287,-35.1386 130.929,-31.0657 124.3631,-32.5284 133.8292,-26.9927 133.8292,-26.9927"/>
</g>
<!-- A5 -->
<g id="node6" class="node">
<title>A5</title>
<path fill="none" stroke="#000000" d="M186.1432,-157C186.1432,-157 99.5368,-157 99.5368,-157 93.5368,-157 87.5368,-151 87.5368,-145 87.5368,-145 87.5368,-133 87.5368,-133 87.5368,-127 93.5368,-121 99.5368,-121 99.5368,-121 186.1432,-121 186.1432,-121 192.1432,-121 198.1432,-127 198.1432,-133 198.1432,-133 198.1432,-145 198.1432,-145 198.1432,-151 192.1432,-157 186.1432,-157"/>
<text text-anchor="middle" x="142.84" y="-142" font-family="Helvetica,sans-Serif" font-size="10.00" fill="#000000">{Return Not Found</text>
<text text-anchor="middle" x="142.84" y="-130" font-family="Helvetica,sans-Serif" font-size="10.00" fill="#000000">Model}</text>
</g>
<!-- A4&#45;&gt;A5 -->
<g id="edge5" class="edge">
<title>A4&#45;&gt;A5</title>
<path fill="none" stroke="#000000" d="M147.2762,-282.7314C146.4096,-254.6565 144.7435,-200.6749 143.7181,-167.4494"/>
<polygon fill="#000000" stroke="#000000" points="143.4095,-157.4503 148.2159,-167.3067 143.5638,-162.448 143.718,-167.4456 143.718,-167.4456 143.718,-167.4456 143.5638,-162.448 139.2202,-167.5845 143.4095,-157.4503 143.4095,-157.4503"/>
<text text-anchor="middle" x="155.008" y="-244" font-family="Helvetica,sans-Serif" font-size="10.00" fill="#000000">[No]</text>
</g>
<!-- A6 -->
<g id="node7" class="node">
<title>A6</title>
<path fill="none" stroke="#000000" d="M276.863,-211C276.863,-211 182.817,-211 182.817,-211 176.817,-211 170.817,-205 170.817,-199 170.817,-199 170.817,-187 170.817,-187 170.817,-181 176.817,-175 182.817,-175 182.817,-175 276.863,-175 276.863,-175 282.863,-175 288.863,-181 288.863,-187 288.863,-187 288.863,-199 288.863,-199 288.863,-205 282.863,-211 276.863,-211"/>
<text text-anchor="middle" x="229.84" y="-196" font-family="Helvetica,sans-Serif" font-size="10.00" fill="#000000">{Get Schedule From</text>
<text text-anchor="middle" x="229.84" y="-184" font-family="Helvetica,sans-Serif" font-size="10.00" fill="#000000">Database}</text>
</g>
<!-- A4&#45;&gt;A6 -->
<g id="edge7" class="edge">
<title>A4&#45;&gt;A6</title>
<path fill="none" stroke="#000000" d="M161.7502,-282.6793C174.9648,-265.2746 194.9753,-238.9193 209.8882,-219.278"/>
<polygon fill="#000000" stroke="#000000" points="216.1352,-211.0502 213.6721,-221.7359 213.1117,-215.0324 210.0881,-219.0146 210.0881,-219.0146 210.0881,-219.0146 213.1117,-215.0324 206.5041,-216.2934 216.1352,-211.0502 216.1352,-211.0502"/>
<text text-anchor="middle" x="212.233" y="-244" font-family="Helvetica,sans-Serif" font-size="10.00" fill="#000000">[Yes]</text>
</g>
<!-- A5&#45;&gt;A3 -->
<g id="edge6" class="edge">
<title>A5&#45;&gt;A3</title>
<path fill="none" stroke="#000000" d="M142.84,-120.9693C142.84,-99.7667 142.84,-64.4295 142.84,-40.445"/>
<polygon fill="#000000" stroke="#000000" points="142.84,-30.3156 147.3401,-40.3155 142.84,-35.3156 142.8401,-40.3156 142.8401,-40.3156 142.8401,-40.3156 142.84,-35.3156 138.3401,-40.3156 142.84,-30.3156 142.84,-30.3156"/>
</g>
<!-- A7 -->
<g id="node8" class="node">
<title>A7</title>
<path fill="none" stroke="#000000" d="M264.749,-103C264.749,-103 186.931,-103 186.931,-103 180.931,-103 174.931,-97 174.931,-91 174.931,-91 174.931,-79 174.931,-79 174.931,-73 180.931,-67 186.931,-67 186.931,-67 264.749,-67 264.749,-67 270.749,-67 276.749,-73 276.749,-79 276.749,-79 276.749,-91 276.749,-91 276.749,-97 270.749,-103 264.749,-103"/>
<text text-anchor="middle" x="225.84" y="-88" font-family="Helvetica,sans-Serif" font-size="10.00" fill="#000000">{Return Success</text>
<text text-anchor="middle" x="225.84" y="-76" font-family="Helvetica,sans-Serif" font-size="10.00" fill="#000000">Model}</text>
</g>
<!-- A6&#45;&gt;A7 -->
<g id="edge8" class="edge">
<title>A6&#45;&gt;A7</title>
<path fill="none" stroke="#000000" d="M229.1615,-174.6793C228.5371,-157.821 227.6017,-132.5651 226.8825,-113.147"/>
<polygon fill="#000000" stroke="#000000" points="226.5085,-103.0502 231.3757,-112.8767 226.6936,-108.0467 226.8787,-113.0433 226.8787,-113.0433 226.8787,-113.0433 226.6936,-108.0467 222.3818,-113.2099 226.5085,-103.0502 226.5085,-103.0502"/>
</g>
<!-- A7&#45;&gt;A3 -->
<g id="edge9" class="edge">
<title>A7&#45;&gt;A3</title>
<path fill="none" stroke="#000000" d="M204.4654,-66.9733C191.3843,-55.9409 174.7831,-41.9399 162.1078,-31.25"/>
<polygon fill="#000000" stroke="#000000" points="154.4217,-24.7677 164.9673,-27.7748 158.2439,-27.9913 162.0661,-31.2148 162.0661,-31.2148 162.0661,-31.2148 158.2439,-27.9913 159.1649,-34.6547 154.4217,-24.7677 154.4217,-24.7677"/>
</g>
</g>
</svg>
