<?xml version="1.0" encoding="UTF-8" standalone="no"?>
<!DOCTYPE svg PUBLIC "-//W3C//DTD SVG 1.1//EN"
 "http://www.w3.org/Graphics/SVG/1.1/DTD/svg11.dtd">
<!-- Generated by graphviz version 2.40.1 (20161225.0304)
 -->
<!-- Title: G Pages: 1 -->
<svg width="402pt" height="433pt"
 viewBox="0.00 0.00 402.03 433.00" xmlns="http://www.w3.org/2000/svg" xmlns:xlink="http://www.w3.org/1999/xlink">
<g id="graph0" class="graph" transform="scale(1 1) rotate(0) translate(4 429)">
<title>G</title>
<polygon fill="#ffffff" stroke="transparent" points="-4,4 -4,-429 398.0305,-429 398.0305,4 -4,4"/>
<!-- A0 -->
<g id="node1" class="node">
<title>A0</title>
<ellipse fill="none" stroke="#000000" cx="62.84" cy="-414" rx="11" ry="11"/>
</g>
<!-- A1 -->
<g id="node2" class="node">
<title>A1</title>
<path fill="none" stroke="#000000" d="M99.8061,-355C99.8061,-355 25.8739,-355 25.8739,-355 19.8739,-355 13.8739,-349 13.8739,-343 13.8739,-343 13.8739,-331 13.8739,-331 13.8739,-325 19.8739,-319 25.8739,-319 25.8739,-319 99.8061,-319 99.8061,-319 105.8061,-319 111.8061,-325 111.8061,-331 111.8061,-331 111.8061,-343 111.8061,-343 111.8061,-349 105.8061,-355 99.8061,-355"/>
<text text-anchor="middle" x="62.84" y="-334" font-family="Helvetica,sans-Serif" font-size="10.00" fill="#000000">{Is Model Valid}</text>
</g>
<!-- A0&#45;&gt;A1 -->
<g id="edge1" class="edge">
<title>A0&#45;&gt;A1</title>
<path fill="none" stroke="#000000" d="M62.84,-402.9678C62.84,-393.124 62.84,-378.2813 62.84,-365.1664"/>
<polygon fill="#000000" stroke="#000000" points="62.84,-355.1474 67.3401,-365.1473 62.84,-360.1474 62.8401,-365.1474 62.8401,-365.1474 62.8401,-365.1474 62.84,-360.1474 58.3401,-365.1474 62.84,-355.1474 62.84,-355.1474"/>
<text text-anchor="middle" x="95.624" y="-376" font-family="Helvetica,sans-Serif" font-size="10.00" fill="#000000">[New Request]</text>
</g>
<!-- A2 -->
<g id="node3" class="node">
<title>A2</title>
<path fill="none" stroke="#000000" d="M107.5204,-103C107.5204,-103 12.1596,-103 12.1596,-103 6.1596,-103 .1596,-97 .1596,-91 .1596,-91 .1596,-79 .1596,-79 .1596,-73 6.1596,-67 12.1596,-67 12.1596,-67 107.5204,-67 107.5204,-67 113.5204,-67 119.5204,-73 119.5204,-79 119.5204,-79 119.5204,-91 119.5204,-91 119.5204,-97 113.5204,-103 107.5204,-103"/>
<text text-anchor="middle" x="59.84" y="-82" font-family="Helvetica,sans-Serif" font-size="10.00" fill="#000000">{Return Error Model}</text>
</g>
<!-- A1&#45;&gt;A2 -->
<g id="edge2" class="edge">
<title>A1&#45;&gt;A2</title>
<path fill="none" stroke="#000000" d="M62.6242,-318.8768C62.1087,-275.5739 60.8022,-165.8207 60.1797,-113.5374"/>
<polygon fill="#000000" stroke="#000000" points="60.0578,-103.2976 64.6766,-113.2433 60.1174,-108.2972 60.177,-113.2969 60.177,-113.2969 60.177,-113.2969 60.1174,-108.2972 55.6773,-113.3505 60.0578,-103.2976 60.0578,-103.2976"/>
<text text-anchor="middle" x="71.008" y="-208" font-family="Helvetica,sans-Serif" font-size="10.00" fill="#000000">[No]</text>
</g>
<!-- A3 -->
<g id="node4" class="node">
<title>A3</title>
<path fill="none" stroke="#000000" d="M192.4821,-271C192.4821,-271 87.1979,-271 87.1979,-271 81.1979,-271 75.1979,-265 75.1979,-259 75.1979,-259 75.1979,-247 75.1979,-247 75.1979,-241 81.1979,-235 87.1979,-235 87.1979,-235 192.4821,-235 192.4821,-235 198.4821,-235 204.4821,-241 204.4821,-247 204.4821,-247 204.4821,-259 204.4821,-259 204.4821,-265 198.4821,-271 192.4821,-271"/>
<text text-anchor="middle" x="139.84" y="-256" font-family="Helvetica,sans-Serif" font-size="10.00" fill="#000000">{Does Model Schedule</text>
<text text-anchor="middle" x="139.84" y="-244" font-family="Helvetica,sans-Serif" font-size="10.00" fill="#000000">Key Exist}</text>
</g>
<!-- A1&#45;&gt;A3 -->
<g id="edge3" class="edge">
<title>A1&#45;&gt;A3</title>
<path fill="none" stroke="#000000" d="M79.5479,-318.7733C90.2435,-307.1053 104.2849,-291.7874 116.1259,-278.8699"/>
<polygon fill="#000000" stroke="#000000" points="123.1648,-271.1912 119.7247,-281.6035 119.7861,-274.877 116.4075,-278.5627 116.4075,-278.5627 116.4075,-278.5627 119.7861,-274.877 113.0903,-275.522 123.1648,-271.1912 123.1648,-271.1912"/>
<text text-anchor="middle" x="117.233" y="-292" font-family="Helvetica,sans-Serif" font-size="10.00" fill="#000000">[Yes]</text>
</g>
<!-- A5 -->
<g id="node6" class="node">
<title>A5</title>
<ellipse fill="none" stroke="#000000" cx="123.84" cy="-15" rx="11" ry="11"/>
<ellipse fill="none" stroke="#000000" cx="123.84" cy="-15" rx="15" ry="15"/>
</g>
<!-- A2&#45;&gt;A5 -->
<g id="edge6" class="edge">
<title>A2&#45;&gt;A5</title>
<path fill="none" stroke="#000000" d="M76.3216,-66.9733C85.5564,-56.8726 97.0664,-44.2836 106.4454,-34.0254"/>
<polygon fill="#000000" stroke="#000000" points="113.426,-26.3903 109.9994,-36.8071 110.0521,-30.0805 106.6783,-33.7706 106.6783,-33.7706 106.6783,-33.7706 110.0521,-30.0805 103.3571,-30.7341 113.426,-26.3903 113.426,-26.3903"/>
</g>
<!-- A3&#45;&gt;A2 -->
<g id="edge5" class="edge">
<title>A3&#45;&gt;A2</title>
<path fill="none" stroke="#000000" d="M128.4019,-234.8814C120.3878,-221.8257 109.69,-203.6477 101.504,-187 89.3902,-162.3646 77.7644,-133.2941 69.8866,-112.5037"/>
<polygon fill="#000000" stroke="#000000" points="66.3346,-103.0183 74.0557,-110.8051 68.0881,-107.7008 69.8415,-112.3832 69.8415,-112.3832 69.8415,-112.3832 68.0881,-107.7008 65.6273,-113.9614 66.3346,-103.0183 66.3346,-103.0183"/>
<text text-anchor="middle" x="110.008" y="-166" font-family="Helvetica,sans-Serif" font-size="10.00" fill="#000000">[No]</text>
</g>
<!-- A4 -->
<g id="node5" class="node">
<title>A4</title>
<path fill="none" stroke="#000000" d="M236.4921,-187C236.4921,-187 141.1879,-187 141.1879,-187 135.1879,-187 129.1879,-181 129.1879,-175 129.1879,-175 129.1879,-163 129.1879,-163 129.1879,-157 135.1879,-151 141.1879,-151 141.1879,-151 236.4921,-151 236.4921,-151 242.4921,-151 248.4921,-157 248.4921,-163 248.4921,-163 248.4921,-175 248.4921,-175 248.4921,-181 242.4921,-187 236.4921,-187"/>
<text text-anchor="middle" x="188.84" y="-172" font-family="Helvetica,sans-Serif" font-size="10.00" fill="#000000">{Update Schedule In</text>
<text text-anchor="middle" x="188.84" y="-160" font-family="Helvetica,sans-Serif" font-size="10.00" fill="#000000">Database}</text>
</g>
<!-- A3&#45;&gt;A4 -->
<g id="edge4" class="edge">
<title>A3&#45;&gt;A4</title>
<path fill="none" stroke="#000000" d="M150.4723,-234.7733C157.0859,-223.4355 165.7099,-208.6515 173.1062,-195.9723"/>
<polygon fill="#000000" stroke="#000000" points="178.2285,-187.1912 177.0767,-198.0964 175.7091,-191.5101 173.1897,-195.829 173.1897,-195.829 173.1897,-195.829 175.7091,-191.5101 169.3027,-193.5615 178.2285,-187.1912 178.2285,-187.1912"/>
<text text-anchor="middle" x="178.233" y="-208" font-family="Helvetica,sans-Serif" font-size="10.00" fill="#000000">[Yes]</text>
</g>
<!-- A4&#45;&gt;A2 -->
<g id="edge9" class="edge">
<title>A4&#45;&gt;A2</title>
<path fill="none" stroke="#000000" d="M161.1663,-150.9799C142.2511,-138.663 116.9814,-122.2084 96.4097,-108.8128"/>
<polygon fill="#000000" stroke="#000000" points="87.9131,-103.2801 98.7486,-104.9659 92.1031,-106.0085 96.2931,-108.7369 96.2931,-108.7369 96.2931,-108.7369 92.1031,-106.0085 93.8375,-112.5079 87.9131,-103.2801 87.9131,-103.2801"/>
<text text-anchor="middle" x="145.7265" y="-124" font-family="Helvetica,sans-Serif" font-size="10.00" fill="#000000">[Error]</text>
</g>
<!-- A6 -->
<g id="node7" class="node">
<title>A6</title>
<path fill="none" stroke="#000000" d="M227.749,-103C227.749,-103 149.931,-103 149.931,-103 143.931,-103 137.931,-97 137.931,-91 137.931,-91 137.931,-79 137.931,-79 137.931,-73 143.931,-67 149.931,-67 149.931,-67 227.749,-67 227.749,-67 233.749,-67 239.749,-73 239.749,-79 239.749,-79 239.749,-91 239.749,-91 239.749,-97 233.749,-103 227.749,-103"/>
<text text-anchor="middle" x="188.84" y="-88" font-family="Helvetica,sans-Serif" font-size="10.00" fill="#000000">{Return Success</text>
<text text-anchor="middle" x="188.84" y="-76" font-family="Helvetica,sans-Serif" font-size="10.00" fill="#000000">Model}</text>
</g>
<!-- A4&#45;&gt;A6 -->
<g id="edge7" class="edge">
<title>A4&#45;&gt;A6</title>
<path fill="none" stroke="#000000" d="M188.84,-150.7733C188.84,-139.8758 188.84,-125.7946 188.84,-113.4587"/>
<polygon fill="#000000" stroke="#000000" points="188.84,-103.1912 193.3401,-113.1911 188.84,-108.1912 188.8401,-113.1912 188.8401,-113.1912 188.8401,-113.1912 188.84,-108.1912 184.3401,-113.1912 188.84,-103.1912 188.84,-103.1912"/>
<text text-anchor="middle" x="210.5125" y="-124" font-family="Helvetica,sans-Serif" font-size="10.00" fill="#000000">[Success]</text>
</g>
<!-- A7 -->
<g id="node8" class="node">
<title>A7</title>
<path fill="none" stroke="#000000" d="M382.2215,-103C382.2215,-103 269.4585,-103 269.4585,-103 263.4585,-103 257.4585,-97 257.4585,-91 257.4585,-91 257.4585,-79 257.4585,-79 257.4585,-73 263.4585,-67 269.4585,-67 269.4585,-67 382.2215,-67 382.2215,-67 388.2215,-67 394.2215,-73 394.2215,-79 394.2215,-79 394.2215,-91 394.2215,-91 394.2215,-97 388.2215,-103 382.2215,-103"/>
<text text-anchor="middle" x="325.84" y="-82" font-family="Helvetica,sans-Serif" font-size="10.00" fill="#000000">{Send Update Message}</text>
</g>
<!-- A4&#45;&gt;A7 -->
<g id="edge8" class="edge">
<title>A4&#45;&gt;A7</title>
<path fill="none" stroke="#000000" d="M218.2299,-150.9799C238.4079,-138.608 265.3947,-122.0614 287.2947,-108.6336"/>
<polygon fill="#000000" stroke="#000000" points="296.0259,-103.2801 289.853,-112.3436 291.7634,-105.8937 287.5008,-108.5073 287.5008,-108.5073 287.5008,-108.5073 291.7634,-105.8937 285.1486,-104.671 296.0259,-103.2801 296.0259,-103.2801"/>
<text text-anchor="middle" x="286.5125" y="-124" font-family="Helvetica,sans-Serif" font-size="10.00" fill="#000000">[Success]</text>
</g>
<!-- A6&#45;&gt;A5 -->
<g id="edge10" class="edge">
<title>A6&#45;&gt;A5</title>
<path fill="none" stroke="#000000" d="M172.1009,-66.9733C162.6289,-56.7726 150.8002,-44.0341 141.2241,-33.7214"/>
<polygon fill="#000000" stroke="#000000" points="134.4167,-26.3903 144.5188,-30.6562 137.819,-30.0543 141.2213,-33.7183 141.2213,-33.7183 141.2213,-33.7183 137.819,-30.0543 137.9237,-36.7803 134.4167,-26.3903 134.4167,-26.3903"/>
</g>
</g>
</svg>
