<?xml version="1.0" encoding="UTF-8" standalone="no"?>
<!DOCTYPE svg PUBLIC "-//W3C//DTD SVG 1.1//EN"
 "http://www.w3.org/Graphics/SVG/1.1/DTD/svg11.dtd">
<!-- Generated by graphviz version 2.40.1 (20161225.0304)
 -->
<!-- Title: G Pages: 1 -->
<svg width="395pt" height="517pt"
 viewBox="0.00 0.00 394.69 517.00" xmlns="http://www.w3.org/2000/svg" xmlns:xlink="http://www.w3.org/1999/xlink">
<g id="graph0" class="graph" transform="scale(1 1) rotate(0) translate(4 513)">
<title>G</title>
<polygon fill="#ffffff" stroke="transparent" points="-4,4 -4,-513 390.6865,-513 390.6865,4 -4,4"/>
<!-- A0 -->
<g id="node1" class="node">
<title>A0</title>
<ellipse fill="none" stroke="#000000" cx="48.7325" cy="-498" rx="11" ry="11"/>
</g>
<!-- A1 -->
<g id="node2" class="node">
<title>A1</title>
<path fill="none" stroke="#000000" d="M85.6986,-439C85.6986,-439 11.7664,-439 11.7664,-439 5.7664,-439 -.2336,-433 -.2336,-427 -.2336,-427 -.2336,-415 -.2336,-415 -.2336,-409 5.7664,-403 11.7664,-403 11.7664,-403 85.6986,-403 85.6986,-403 91.6986,-403 97.6986,-409 97.6986,-415 97.6986,-415 97.6986,-427 97.6986,-427 97.6986,-433 91.6986,-439 85.6986,-439"/>
<text text-anchor="middle" x="48.7325" y="-418" font-family="Helvetica,sans-Serif" font-size="10.00" fill="#000000">{Is Model Valid}</text>
</g>
<!-- A0&#45;&gt;A1 -->
<g id="edge1" class="edge">
<title>A0&#45;&gt;A1</title>
<path fill="none" stroke="#000000" d="M48.7325,-486.9678C48.7325,-477.124 48.7325,-462.2813 48.7325,-449.1664"/>
<polygon fill="#000000" stroke="#000000" points="48.7325,-439.1474 53.2326,-449.1473 48.7325,-444.1474 48.7326,-449.1474 48.7326,-449.1474 48.7326,-449.1474 48.7325,-444.1474 44.2326,-449.1474 48.7325,-439.1474 48.7325,-439.1474"/>
<text text-anchor="middle" x="81.5165" y="-460" font-family="Helvetica,sans-Serif" font-size="10.00" fill="#000000">[New Request]</text>
</g>
<!-- A2 -->
<g id="node3" class="node">
<title>A2</title>
<path fill="none" stroke="#000000" d="M134.4129,-103C134.4129,-103 39.0521,-103 39.0521,-103 33.0521,-103 27.0521,-97 27.0521,-91 27.0521,-91 27.0521,-79 27.0521,-79 27.0521,-73 33.0521,-67 39.0521,-67 39.0521,-67 134.4129,-67 134.4129,-67 140.4129,-67 146.4129,-73 146.4129,-79 146.4129,-79 146.4129,-91 146.4129,-91 146.4129,-97 140.4129,-103 134.4129,-103"/>
<text text-anchor="middle" x="86.7325" y="-82" font-family="Helvetica,sans-Serif" font-size="10.00" fill="#000000">{Return Error Model}</text>
</g>
<!-- A1&#45;&gt;A2 -->
<g id="edge2" class="edge">
<title>A1&#45;&gt;A2</title>
<path fill="none" stroke="#000000" d="M43.2262,-402.8371C38.598,-385.9505 32.7325,-360.0106 32.7325,-337 32.7325,-337 32.7325,-337 32.7325,-169 32.7325,-147.0026 45.9979,-126.1756 59.379,-110.7626"/>
<polygon fill="#000000" stroke="#000000" points="66.3174,-103.2185 62.8601,-113.6251 62.9327,-106.8987 59.5479,-110.5789 59.5479,-110.5789 59.5479,-110.5789 62.9327,-106.8987 56.2358,-107.5326 66.3174,-103.2185 66.3174,-103.2185"/>
<text text-anchor="middle" x="41.9005" y="-250" font-family="Helvetica,sans-Serif" font-size="10.00" fill="#000000">[No]</text>
</g>
<!-- A3 -->
<g id="node4" class="node">
<title>A3</title>
<path fill="none" stroke="#000000" d="M168.3776,-355C168.3776,-355 73.0874,-355 73.0874,-355 67.0874,-355 61.0874,-349 61.0874,-343 61.0874,-343 61.0874,-331 61.0874,-331 61.0874,-325 67.0874,-319 73.0874,-319 73.0874,-319 168.3776,-319 168.3776,-319 174.3776,-319 180.3776,-325 180.3776,-331 180.3776,-331 180.3776,-343 180.3776,-343 180.3776,-349 174.3776,-355 168.3776,-355"/>
<text text-anchor="middle" x="120.7325" y="-340" font-family="Helvetica,sans-Serif" font-size="10.00" fill="#000000">{Does Schedule Key</text>
<text text-anchor="middle" x="120.7325" y="-328" font-family="Helvetica,sans-Serif" font-size="10.00" fill="#000000">Exist}</text>
</g>
<!-- A1&#45;&gt;A3 -->
<g id="edge3" class="edge">
<title>A1&#45;&gt;A3</title>
<path fill="none" stroke="#000000" d="M64.3554,-402.7733C74.3565,-391.1053 87.4861,-375.7874 98.5583,-362.8699"/>
<polygon fill="#000000" stroke="#000000" points="105.1401,-355.1912 102.0488,-365.7123 101.8861,-358.9875 98.6321,-362.7838 98.6321,-362.7838 98.6321,-362.7838 101.8861,-358.9875 95.2154,-359.8552 105.1401,-355.1912 105.1401,-355.1912"/>
<text text-anchor="middle" x="100.1255" y="-376" font-family="Helvetica,sans-Serif" font-size="10.00" fill="#000000">[Yes]</text>
</g>
<!-- A8 -->
<g id="node9" class="node">
<title>A8</title>
<ellipse fill="none" stroke="#000000" cx="150.7325" cy="-15" rx="11" ry="11"/>
<ellipse fill="none" stroke="#000000" cx="150.7325" cy="-15" rx="15" ry="15"/>
</g>
<!-- A2&#45;&gt;A8 -->
<g id="edge11" class="edge">
<title>A2&#45;&gt;A8</title>
<path fill="none" stroke="#000000" d="M103.2141,-66.9733C112.4489,-56.8726 123.9589,-44.2836 133.3379,-34.0254"/>
<polygon fill="#000000" stroke="#000000" points="140.3185,-26.3903 136.8919,-36.8071 136.9446,-30.0805 133.5708,-33.7706 133.5708,-33.7706 133.5708,-33.7706 136.9446,-30.0805 130.2496,-30.7341 140.3185,-26.3903 140.3185,-26.3903"/>
</g>
<!-- A3&#45;&gt;A2 -->
<g id="edge4" class="edge">
<title>A3&#45;&gt;A2</title>
<path fill="none" stroke="#000000" d="M112.8951,-318.8882C107.6274,-305.8356 101.0608,-287.6586 97.7325,-271 86.7623,-216.0926 85.5981,-150.4016 85.9946,-113.6119"/>
<polygon fill="#000000" stroke="#000000" points="86.1587,-103.1662 90.501,-113.2357 86.0801,-108.1656 86.0016,-113.165 86.0016,-113.165 86.0016,-113.165 86.0801,-108.1656 81.5021,-113.0943 86.1587,-103.1662 86.1587,-103.1662"/>
<text text-anchor="middle" x="98.9005" y="-208" font-family="Helvetica,sans-Serif" font-size="10.00" fill="#000000">[No]</text>
</g>
<!-- A4 -->
<g id="node5" class="node">
<title>A4</title>
<path fill="none" stroke="#000000" d="M198.2984,-271C198.2984,-271 119.1666,-271 119.1666,-271 113.1666,-271 107.1666,-265 107.1666,-259 107.1666,-259 107.1666,-247 107.1666,-247 107.1666,-241 113.1666,-235 119.1666,-235 119.1666,-235 198.2984,-235 198.2984,-235 204.2984,-235 210.2984,-241 210.2984,-247 210.2984,-247 210.2984,-259 210.2984,-259 210.2984,-265 204.2984,-271 198.2984,-271"/>
<text text-anchor="middle" x="158.7325" y="-256" font-family="Helvetica,sans-Serif" font-size="10.00" fill="#000000">{Does Start Time</text>
<text text-anchor="middle" x="158.7325" y="-244" font-family="Helvetica,sans-Serif" font-size="10.00" fill="#000000">Already Exist}</text>
</g>
<!-- A3&#45;&gt;A4 -->
<g id="edge5" class="edge">
<title>A3&#45;&gt;A4</title>
<path fill="none" stroke="#000000" d="M128.9779,-318.7733C134.0571,-307.5456 140.6652,-292.9383 146.3634,-280.3422"/>
<polygon fill="#000000" stroke="#000000" points="150.5032,-271.1912 150.4814,-282.157 148.4423,-275.7467 146.3814,-280.3023 146.3814,-280.3023 146.3814,-280.3023 148.4423,-275.7467 142.2814,-278.4475 150.5032,-271.1912 150.5032,-271.1912"/>
<text text-anchor="middle" x="153.1255" y="-292" font-family="Helvetica,sans-Serif" font-size="10.00" fill="#000000">[Yes]</text>
</g>
<!-- A4&#45;&gt;A2 -->
<g id="edge6" class="edge">
<title>A4&#45;&gt;A2</title>
<path fill="none" stroke="#000000" d="M150.8902,-234.7012C138.2515,-205.211 113.3028,-146.9973 98.5163,-112.4956"/>
<polygon fill="#000000" stroke="#000000" points="94.4562,-103.0219 102.5316,-110.4407 96.4258,-107.6176 98.3954,-112.2134 98.3954,-112.2134 98.3954,-112.2134 96.4258,-107.6176 94.2593,-113.986 94.4562,-103.0219 94.4562,-103.0219"/>
<text text-anchor="middle" x="141.1255" y="-166" font-family="Helvetica,sans-Serif" font-size="10.00" fill="#000000">[Yes]</text>
</g>
<!-- A5 -->
<g id="node6" class="node">
<title>A5</title>
<path fill="none" stroke="#000000" d="M271.7155,-187C271.7155,-187 177.7495,-187 177.7495,-187 171.7495,-187 165.7495,-181 165.7495,-175 165.7495,-175 165.7495,-163 165.7495,-163 165.7495,-157 171.7495,-151 177.7495,-151 177.7495,-151 271.7155,-151 271.7155,-151 277.7155,-151 283.7155,-157 283.7155,-163 283.7155,-163 283.7155,-175 283.7155,-175 283.7155,-181 277.7155,-187 271.7155,-187"/>
<text text-anchor="middle" x="224.7325" y="-172" font-family="Helvetica,sans-Serif" font-size="10.00" fill="#000000">{Add Schedule Start</text>
<text text-anchor="middle" x="224.7325" y="-160" font-family="Helvetica,sans-Serif" font-size="10.00" fill="#000000">to Database}</text>
</g>
<!-- A4&#45;&gt;A5 -->
<g id="edge7" class="edge">
<title>A4&#45;&gt;A5</title>
<path fill="none" stroke="#000000" d="M173.0535,-234.7733C182.1347,-223.2154 194.0298,-208.0761 204.1184,-195.2361"/>
<polygon fill="#000000" stroke="#000000" points="210.4394,-187.1912 207.7996,-197.8346 207.3503,-191.1228 204.2612,-195.0544 204.2612,-195.0544 204.2612,-195.0544 207.3503,-191.1228 200.7227,-192.2742 210.4394,-187.1912 210.4394,-187.1912"/>
<text text-anchor="middle" x="203.9005" y="-208" font-family="Helvetica,sans-Serif" font-size="10.00" fill="#000000">[No]</text>
</g>
<!-- A5&#45;&gt;A2 -->
<g id="edge8" class="edge">
<title>A5&#45;&gt;A2</title>
<path fill="none" stroke="#000000" d="M195.128,-150.9799C174.8028,-138.608 147.619,-122.0614 125.5591,-108.6336"/>
<polygon fill="#000000" stroke="#000000" points="116.7642,-103.2801 127.646,-104.6358 121.0352,-105.8799 125.3062,-108.4797 125.3062,-108.4797 125.3062,-108.4797 121.0352,-105.8799 122.9664,-112.3236 116.7642,-103.2801 116.7642,-103.2801"/>
<text text-anchor="middle" x="177.619" y="-124" font-family="Helvetica,sans-Serif" font-size="10.00" fill="#000000">[Error]</text>
</g>
<!-- A6 -->
<g id="node7" class="node">
<title>A6</title>
<path fill="none" stroke="#000000" d="M254.6415,-103C254.6415,-103 176.8235,-103 176.8235,-103 170.8235,-103 164.8235,-97 164.8235,-91 164.8235,-91 164.8235,-79 164.8235,-79 164.8235,-73 170.8235,-67 176.8235,-67 176.8235,-67 254.6415,-67 254.6415,-67 260.6415,-67 266.6415,-73 266.6415,-79 266.6415,-79 266.6415,-91 266.6415,-91 266.6415,-97 260.6415,-103 254.6415,-103"/>
<text text-anchor="middle" x="215.7325" y="-88" font-family="Helvetica,sans-Serif" font-size="10.00" fill="#000000">{Return Success</text>
<text text-anchor="middle" x="215.7325" y="-76" font-family="Helvetica,sans-Serif" font-size="10.00" fill="#000000">Model}</text>
</g>
<!-- A5&#45;&gt;A6 -->
<g id="edge9" class="edge">
<title>A5&#45;&gt;A6</title>
<path fill="none" stroke="#000000" d="M222.7796,-150.7733C221.6121,-139.8758 220.1034,-125.7946 218.7816,-113.4587"/>
<polygon fill="#000000" stroke="#000000" points="217.6816,-103.1912 223.2214,-112.6548 218.2143,-108.1627 218.747,-113.1343 218.747,-113.1343 218.747,-113.1343 218.2143,-108.1627 214.2726,-113.6137 217.6816,-103.1912 217.6816,-103.1912"/>
<text text-anchor="middle" x="242.405" y="-124" font-family="Helvetica,sans-Serif" font-size="10.00" fill="#000000">[Success]</text>
</g>
<!-- A7 -->
<g id="node8" class="node">
<title>A7</title>
<path fill="none" stroke="#000000" d="M374.6405,-103C374.6405,-103 296.8245,-103 296.8245,-103 290.8245,-103 284.8245,-97 284.8245,-91 284.8245,-91 284.8245,-79 284.8245,-79 284.8245,-73 290.8245,-67 296.8245,-67 296.8245,-67 374.6405,-67 374.6405,-67 380.6405,-67 386.6405,-73 386.6405,-79 386.6405,-79 386.6405,-91 386.6405,-91 386.6405,-97 380.6405,-103 374.6405,-103"/>
<text text-anchor="middle" x="335.7325" y="-88" font-family="Helvetica,sans-Serif" font-size="10.00" fill="#000000">{Broadcase New</text>
<text text-anchor="middle" x="335.7325" y="-76" font-family="Helvetica,sans-Serif" font-size="10.00" fill="#000000">Schedule Start}</text>
</g>
<!-- A5&#45;&gt;A7 -->
<g id="edge10" class="edge">
<title>A5&#45;&gt;A7</title>
<path fill="none" stroke="#000000" d="M248.5448,-150.9799C264.53,-138.883 285.7895,-122.7947 303.3135,-109.5333"/>
<polygon fill="#000000" stroke="#000000" points="311.5766,-103.2801 306.318,-112.903 307.5895,-106.2974 303.6025,-109.3146 303.6025,-109.3146 303.6025,-109.3146 307.5895,-106.2974 300.887,-105.7263 311.5766,-103.2801 311.5766,-103.2801"/>
<text text-anchor="middle" x="308.405" y="-124" font-family="Helvetica,sans-Serif" font-size="10.00" fill="#000000">[Success]</text>
</g>
<!-- A6&#45;&gt;A8 -->
<g id="edge12" class="edge">
<title>A6&#45;&gt;A8</title>
<path fill="none" stroke="#000000" d="M198.9934,-66.9733C189.5214,-56.7726 177.6927,-44.0341 168.1166,-33.7214"/>
<polygon fill="#000000" stroke="#000000" points="161.3092,-26.3903 171.4113,-30.6562 164.7115,-30.0543 168.1138,-33.7183 168.1138,-33.7183 168.1138,-33.7183 164.7115,-30.0543 164.8162,-36.7803 161.3092,-26.3903 161.3092,-26.3903"/>
</g>
</g>
</svg>
