<?xml version="1.0" encoding="UTF-8" standalone="no"?>
<!DOCTYPE svg PUBLIC "-//W3C//DTD SVG 1.1//EN"
 "http://www.w3.org/Graphics/SVG/1.1/DTD/svg11.dtd">
<!-- Generated by graphviz version 2.40.1 (20161225.0304)
 -->
<!-- Title: G Pages: 1 -->
<svg width="421pt" height="517pt"
 viewBox="0.00 0.00 421.25 517.00" xmlns="http://www.w3.org/2000/svg" xmlns:xlink="http://www.w3.org/1999/xlink">
<g id="graph0" class="graph" transform="scale(1 1) rotate(0) translate(4 513)">
<title>G</title>
<polygon fill="#ffffff" stroke="transparent" points="-4,4 -4,-513 417.253,-513 417.253,4 -4,4"/>
<!-- A0 -->
<g id="node1" class="node">
<title>A0</title>
<ellipse fill="none" stroke="#000000" cx="48.7325" cy="-498" rx="11" ry="11"/>
</g>
<!-- A1 -->
<g id="node2" class="node">
<title>A1</title>
<path fill="none" stroke="#000000" d="M85.6986,-439C85.6986,-439 11.7664,-439 11.7664,-439 5.7664,-439 -.2336,-433 -.2336,-427 -.2336,-427 -.2336,-415 -.2336,-415 -.2336,-409 5.7664,-403 11.7664,-403 11.7664,-403 85.6986,-403 85.6986,-403 91.6986,-403 97.6986,-409 97.6986,-415 97.6986,-415 97.6986,-427 97.6986,-427 97.6986,-433 91.6986,-439 85.6986,-439"/>
<text text-anchor="middle" x="48.7325" y="-418" font-family="Helvetica,sans-Serif" font-size="10.00" fill="#000000">{Is Model Valid}</text>
</g>
<!-- A0&#45;&gt;A1 -->
<g id="edge1" class="edge">
<title>A0&#45;&gt;A1</title>
<path fill="none" stroke="#000000" d="M48.7325,-486.9678C48.7325,-477.124 48.7325,-462.2813 48.7325,-449.1664"/>
<polygon fill="#000000" stroke="#000000" points="48.7325,-439.1474 53.2326,-449.1473 48.7325,-444.1474 48.7326,-449.1474 48.7326,-449.1474 48.7326,-449.1474 48.7325,-444.1474 44.2326,-449.1474 48.7325,-439.1474 48.7325,-439.1474"/>
<text text-anchor="middle" x="81.5165" y="-460" font-family="Helvetica,sans-Serif" font-size="10.00" fill="#000000">[New Request]</text>
</g>
<!-- A2 -->
<g id="node3" class="node">
<title>A2</title>
<path fill="none" stroke="#000000" d="M130.4129,-103C130.4129,-103 35.0521,-103 35.0521,-103 29.0521,-103 23.0521,-97 23.0521,-91 23.0521,-91 23.0521,-79 23.0521,-79 23.0521,-73 29.0521,-67 35.0521,-67 35.0521,-67 130.4129,-67 130.4129,-67 136.4129,-67 142.4129,-73 142.4129,-79 142.4129,-79 142.4129,-91 142.4129,-91 142.4129,-97 136.4129,-103 130.4129,-103"/>
<text text-anchor="middle" x="82.7325" y="-82" font-family="Helvetica,sans-Serif" font-size="10.00" fill="#000000">{Return Error Model}</text>
</g>
<!-- A1&#45;&gt;A2 -->
<g id="edge2" class="edge">
<title>A1&#45;&gt;A2</title>
<path fill="none" stroke="#000000" d="M43.2262,-402.8371C38.598,-385.9505 32.7325,-360.0106 32.7325,-337 32.7325,-337 32.7325,-337 32.7325,-169 32.7325,-147.5207 44.9533,-126.7485 57.3114,-111.2341"/>
<polygon fill="#000000" stroke="#000000" points="64.1143,-103.1849 61.0962,-113.7273 60.8868,-107.0037 57.6593,-110.8225 57.6593,-110.8225 57.6593,-110.8225 60.8868,-107.0037 54.2224,-107.9177 64.1143,-103.1849 64.1143,-103.1849"/>
<text text-anchor="middle" x="41.9005" y="-250" font-family="Helvetica,sans-Serif" font-size="10.00" fill="#000000">[No]</text>
</g>
<!-- A3 -->
<g id="node4" class="node">
<title>A3</title>
<path fill="none" stroke="#000000" d="M168.3776,-355C168.3776,-355 73.0874,-355 73.0874,-355 67.0874,-355 61.0874,-349 61.0874,-343 61.0874,-343 61.0874,-331 61.0874,-331 61.0874,-325 67.0874,-319 73.0874,-319 73.0874,-319 168.3776,-319 168.3776,-319 174.3776,-319 180.3776,-325 180.3776,-331 180.3776,-331 180.3776,-343 180.3776,-343 180.3776,-349 174.3776,-355 168.3776,-355"/>
<text text-anchor="middle" x="120.7325" y="-340" font-family="Helvetica,sans-Serif" font-size="10.00" fill="#000000">{Does Schedule Key</text>
<text text-anchor="middle" x="120.7325" y="-328" font-family="Helvetica,sans-Serif" font-size="10.00" fill="#000000">Exist}</text>
</g>
<!-- A1&#45;&gt;A3 -->
<g id="edge3" class="edge">
<title>A1&#45;&gt;A3</title>
<path fill="none" stroke="#000000" d="M64.3554,-402.7733C74.3565,-391.1053 87.4861,-375.7874 98.5583,-362.8699"/>
<polygon fill="#000000" stroke="#000000" points="105.1401,-355.1912 102.0488,-365.7123 101.8861,-358.9875 98.6321,-362.7838 98.6321,-362.7838 98.6321,-362.7838 101.8861,-358.9875 95.2154,-359.8552 105.1401,-355.1912 105.1401,-355.1912"/>
<text text-anchor="middle" x="100.1255" y="-376" font-family="Helvetica,sans-Serif" font-size="10.00" fill="#000000">[Yes]</text>
</g>
<!-- A8 -->
<g id="node9" class="node">
<title>A8</title>
<ellipse fill="none" stroke="#000000" cx="146.7325" cy="-15" rx="11" ry="11"/>
<ellipse fill="none" stroke="#000000" cx="146.7325" cy="-15" rx="15" ry="15"/>
</g>
<!-- A2&#45;&gt;A8 -->
<g id="edge11" class="edge">
<title>A2&#45;&gt;A8</title>
<path fill="none" stroke="#000000" d="M99.2141,-66.9733C108.4489,-56.8726 119.9589,-44.2836 129.3379,-34.0254"/>
<polygon fill="#000000" stroke="#000000" points="136.3185,-26.3903 132.8919,-36.8071 132.9446,-30.0805 129.5708,-33.7706 129.5708,-33.7706 129.5708,-33.7706 132.9446,-30.0805 126.2496,-30.7341 136.3185,-26.3903 136.3185,-26.3903"/>
</g>
<!-- A3&#45;&gt;A2 -->
<g id="edge4" class="edge">
<title>A3&#45;&gt;A2</title>
<path fill="none" stroke="#000000" d="M113.0047,-318.8656C107.7888,-305.8025 101.2388,-287.622 97.7325,-271 86.1582,-216.1312 83.3781,-150.4266 82.7914,-113.624"/>
<polygon fill="#000000" stroke="#000000" points="82.6724,-103.1744 87.2861,-113.1225 82.7294,-108.1741 82.7863,-113.1738 82.7863,-113.1738 82.7863,-113.1738 82.7294,-108.1741 78.2866,-113.225 82.6724,-103.1744 82.6724,-103.1744"/>
<text text-anchor="middle" x="97.9005" y="-208" font-family="Helvetica,sans-Serif" font-size="10.00" fill="#000000">[No]</text>
</g>
<!-- A4 -->
<g id="node5" class="node">
<title>A4</title>
<path fill="none" stroke="#000000" d="M208.8546,-271C208.8546,-271 118.6104,-271 118.6104,-271 112.6104,-271 106.6104,-265 106.6104,-259 106.6104,-259 106.6104,-247 106.6104,-247 106.6104,-241 112.6104,-235 118.6104,-235 118.6104,-235 208.8546,-235 208.8546,-235 214.8546,-235 220.8546,-241 220.8546,-247 220.8546,-247 220.8546,-259 220.8546,-259 220.8546,-265 214.8546,-271 208.8546,-271"/>
<text text-anchor="middle" x="163.7325" y="-256" font-family="Helvetica,sans-Serif" font-size="10.00" fill="#000000">{Does Start Time id</text>
<text text-anchor="middle" x="163.7325" y="-244" font-family="Helvetica,sans-Serif" font-size="10.00" fill="#000000">Exist}</text>
</g>
<!-- A3&#45;&gt;A4 -->
<g id="edge5" class="edge">
<title>A3&#45;&gt;A4</title>
<path fill="none" stroke="#000000" d="M130.0629,-318.7733C135.8104,-307.5456 143.2879,-292.9383 149.7359,-280.3422"/>
<polygon fill="#000000" stroke="#000000" points="154.4203,-271.1912 153.8693,-282.1432 152.142,-275.6419 149.8636,-280.0927 149.8636,-280.0927 149.8636,-280.0927 152.142,-275.6419 145.8579,-278.0421 154.4203,-271.1912 154.4203,-271.1912"/>
<text text-anchor="middle" x="156.1255" y="-292" font-family="Helvetica,sans-Serif" font-size="10.00" fill="#000000">[Yes]</text>
</g>
<!-- A4&#45;&gt;A2 -->
<g id="edge6" class="edge">
<title>A4&#45;&gt;A2</title>
<path fill="none" stroke="#000000" d="M154.9099,-234.7012C140.6303,-205.0844 112.3829,-146.497 95.7757,-112.0526"/>
<polygon fill="#000000" stroke="#000000" points="91.4216,-103.0219 99.8181,-110.0752 93.5932,-107.5258 95.7647,-112.0296 95.7647,-112.0296 95.7647,-112.0296 93.5932,-107.5258 91.7112,-113.984 91.4216,-103.0219 91.4216,-103.0219"/>
<text text-anchor="middle" x="139.9005" y="-166" font-family="Helvetica,sans-Serif" font-size="10.00" fill="#000000">[No]</text>
</g>
<!-- A5 -->
<g id="node6" class="node">
<title>A5</title>
<path fill="none" stroke="#000000" d="M258.3546,-187C258.3546,-187 173.1104,-187 173.1104,-187 167.1104,-187 161.1104,-181 161.1104,-175 161.1104,-175 161.1104,-163 161.1104,-163 161.1104,-157 167.1104,-151 173.1104,-151 173.1104,-151 258.3546,-151 258.3546,-151 264.3546,-151 270.3546,-157 270.3546,-163 270.3546,-163 270.3546,-175 270.3546,-175 270.3546,-181 264.3546,-187 258.3546,-187"/>
<text text-anchor="middle" x="215.7325" y="-172" font-family="Helvetica,sans-Serif" font-size="10.00" fill="#000000">{Delete Start Time</text>
<text text-anchor="middle" x="215.7325" y="-160" font-family="Helvetica,sans-Serif" font-size="10.00" fill="#000000">From Database}</text>
</g>
<!-- A4&#45;&gt;A5 -->
<g id="edge7" class="edge">
<title>A4&#45;&gt;A5</title>
<path fill="none" stroke="#000000" d="M175.0157,-234.7733C182.0343,-223.4355 191.1863,-208.6515 199.0354,-195.9723"/>
<polygon fill="#000000" stroke="#000000" points="204.4713,-187.1912 203.0339,-198.0625 201.8395,-191.4425 199.2077,-195.6938 199.2077,-195.6938 199.2077,-195.6938 201.8395,-191.4425 195.3815,-193.3252 204.4713,-187.1912 204.4713,-187.1912"/>
<text text-anchor="middle" x="204.1255" y="-208" font-family="Helvetica,sans-Serif" font-size="10.00" fill="#000000">[Yes]</text>
</g>
<!-- A5&#45;&gt;A2 -->
<g id="edge8" class="edge">
<title>A5&#45;&gt;A2</title>
<path fill="none" stroke="#000000" d="M187.2007,-150.9799C167.6119,-138.608 141.413,-122.0614 120.1524,-108.6336"/>
<polygon fill="#000000" stroke="#000000" points="111.6761,-103.2801 122.534,-104.8154 115.9035,-105.9501 120.131,-108.6201 120.131,-108.6201 120.131,-108.6201 115.9035,-105.9501 117.728,-112.4248 111.6761,-103.2801 111.6761,-103.2801"/>
<text text-anchor="middle" x="170.619" y="-124" font-family="Helvetica,sans-Serif" font-size="10.00" fill="#000000">[Error]</text>
</g>
<!-- A6 -->
<g id="node7" class="node">
<title>A6</title>
<path fill="none" stroke="#000000" d="M250.6415,-103C250.6415,-103 172.8235,-103 172.8235,-103 166.8235,-103 160.8235,-97 160.8235,-91 160.8235,-91 160.8235,-79 160.8235,-79 160.8235,-73 166.8235,-67 172.8235,-67 172.8235,-67 250.6415,-67 250.6415,-67 256.6415,-67 262.6415,-73 262.6415,-79 262.6415,-79 262.6415,-91 262.6415,-91 262.6415,-97 256.6415,-103 250.6415,-103"/>
<text text-anchor="middle" x="211.7325" y="-88" font-family="Helvetica,sans-Serif" font-size="10.00" fill="#000000">{Return Success</text>
<text text-anchor="middle" x="211.7325" y="-76" font-family="Helvetica,sans-Serif" font-size="10.00" fill="#000000">Model}</text>
</g>
<!-- A5&#45;&gt;A6 -->
<g id="edge9" class="edge">
<title>A5&#45;&gt;A6</title>
<path fill="none" stroke="#000000" d="M214.8646,-150.7733C214.3456,-139.8758 213.6751,-125.7946 213.0877,-113.4587"/>
<polygon fill="#000000" stroke="#000000" points="212.5987,-103.1912 217.5694,-112.9658 212.8366,-108.1855 213.0745,-113.1799 213.0745,-113.1799 213.0745,-113.1799 212.8366,-108.1855 208.5796,-113.3939 212.5987,-103.1912 212.5987,-103.1912"/>
<text text-anchor="middle" x="235.405" y="-124" font-family="Helvetica,sans-Serif" font-size="10.00" fill="#000000">[Success]</text>
</g>
<!-- A7 -->
<g id="node8" class="node">
<title>A7</title>
<path fill="none" stroke="#000000" d="M401.2735,-103C401.2735,-103 292.1915,-103 292.1915,-103 286.1915,-103 280.1915,-97 280.1915,-91 280.1915,-91 280.1915,-79 280.1915,-79 280.1915,-73 286.1915,-67 292.1915,-67 292.1915,-67 401.2735,-67 401.2735,-67 407.2735,-67 413.2735,-73 413.2735,-79 413.2735,-79 413.2735,-91 413.2735,-91 413.2735,-97 407.2735,-103 401.2735,-103"/>
<text text-anchor="middle" x="346.7325" y="-82" font-family="Helvetica,sans-Serif" font-size="10.00" fill="#000000">{Send Delete Message}</text>
</g>
<!-- A5&#45;&gt;A7 -->
<g id="edge10" class="edge">
<title>A5&#45;&gt;A7</title>
<path fill="none" stroke="#000000" d="M243.8353,-150.9799C263.0438,-138.663 288.7052,-122.2084 309.5958,-108.8128"/>
<polygon fill="#000000" stroke="#000000" points="318.2242,-103.2801 312.2352,-112.4661 314.0151,-105.9791 309.8061,-108.678 309.8061,-108.678 309.8061,-108.678 314.0151,-105.9791 307.3771,-104.8899 318.2242,-103.2801 318.2242,-103.2801"/>
<text text-anchor="middle" x="310.405" y="-124" font-family="Helvetica,sans-Serif" font-size="10.00" fill="#000000">[Success]</text>
</g>
<!-- A6&#45;&gt;A8 -->
<g id="edge12" class="edge">
<title>A6&#45;&gt;A8</title>
<path fill="none" stroke="#000000" d="M194.9934,-66.9733C185.5214,-56.7726 173.6927,-44.0341 164.1166,-33.7214"/>
<polygon fill="#000000" stroke="#000000" points="157.3092,-26.3903 167.4113,-30.6562 160.7115,-30.0543 164.1138,-33.7183 164.1138,-33.7183 164.1138,-33.7183 160.7115,-30.0543 160.8162,-36.7803 157.3092,-26.3903 157.3092,-26.3903"/>
</g>
</g>
</svg>
