<?xml version="1.0" encoding="UTF-8" standalone="no"?>
<!DOCTYPE svg PUBLIC "-//W3C//DTD SVG 1.1//EN"
 "http://www.w3.org/Graphics/SVG/1.1/DTD/svg11.dtd">
<!-- Generated by graphviz version 2.40.1 (20161225.0304)
 -->
<!-- Title: G Pages: 1 -->
<svg width="451pt" height="601pt"
 viewBox="0.00 0.00 451.13 601.00" xmlns="http://www.w3.org/2000/svg" xmlns:xlink="http://www.w3.org/1999/xlink">
<g id="graph0" class="graph" transform="scale(1 1) rotate(0) translate(4 597)">
<title>G</title>
<polygon fill="#ffffff" stroke="transparent" points="-4,4 -4,-597 447.129,-597 447.129,4 -4,4"/>
<!-- A0 -->
<g id="node1" class="node">
<title>A0</title>
<ellipse fill="none" stroke="#000000" cx="48.7325" cy="-582" rx="11" ry="11"/>
</g>
<!-- A1 -->
<g id="node2" class="node">
<title>A1</title>
<path fill="none" stroke="#000000" d="M85.6986,-523C85.6986,-523 11.7664,-523 11.7664,-523 5.7664,-523 -.2336,-517 -.2336,-511 -.2336,-511 -.2336,-499 -.2336,-499 -.2336,-493 5.7664,-487 11.7664,-487 11.7664,-487 85.6986,-487 85.6986,-487 91.6986,-487 97.6986,-493 97.6986,-499 97.6986,-499 97.6986,-511 97.6986,-511 97.6986,-517 91.6986,-523 85.6986,-523"/>
<text text-anchor="middle" x="48.7325" y="-502" font-family="Helvetica,sans-Serif" font-size="10.00" fill="#000000">{Is Model Valid}</text>
</g>
<!-- A0&#45;&gt;A1 -->
<g id="edge1" class="edge">
<title>A0&#45;&gt;A1</title>
<path fill="none" stroke="#000000" d="M48.7325,-570.9678C48.7325,-561.124 48.7325,-546.2813 48.7325,-533.1664"/>
<polygon fill="#000000" stroke="#000000" points="48.7325,-523.1474 53.2326,-533.1473 48.7325,-528.1474 48.7326,-533.1474 48.7326,-533.1474 48.7326,-533.1474 48.7325,-528.1474 44.2326,-533.1474 48.7325,-523.1474 48.7325,-523.1474"/>
<text text-anchor="middle" x="81.5165" y="-544" font-family="Helvetica,sans-Serif" font-size="10.00" fill="#000000">[New Request]</text>
</g>
<!-- A2 -->
<g id="node3" class="node">
<title>A2</title>
<path fill="none" stroke="#000000" d="M172.4129,-103C172.4129,-103 77.0521,-103 77.0521,-103 71.0521,-103 65.0521,-97 65.0521,-91 65.0521,-91 65.0521,-79 65.0521,-79 65.0521,-73 71.0521,-67 77.0521,-67 77.0521,-67 172.4129,-67 172.4129,-67 178.4129,-67 184.4129,-73 184.4129,-79 184.4129,-79 184.4129,-91 184.4129,-91 184.4129,-97 178.4129,-103 172.4129,-103"/>
<text text-anchor="middle" x="124.7325" y="-82" font-family="Helvetica,sans-Serif" font-size="10.00" fill="#000000">{Return Error Model}</text>
</g>
<!-- A1&#45;&gt;A2 -->
<g id="edge2" class="edge">
<title>A1&#45;&gt;A2</title>
<path fill="none" stroke="#000000" d="M43.2262,-486.8371C38.598,-469.9505 32.7325,-444.0106 32.7325,-421 32.7325,-421 32.7325,-421 32.7325,-169 32.7325,-142.6506 53.568,-122.3564 75.4081,-108.3216"/>
<polygon fill="#000000" stroke="#000000" points="84.1122,-103.0639 77.8793,-112.0862 79.8324,-105.6491 75.5525,-108.2344 75.5525,-108.2344 75.5525,-108.2344 79.8324,-105.6491 73.2258,-104.3825 84.1122,-103.0639 84.1122,-103.0639"/>
<text text-anchor="middle" x="41.9005" y="-292" font-family="Helvetica,sans-Serif" font-size="10.00" fill="#000000">[No]</text>
</g>
<!-- A3 -->
<g id="node4" class="node">
<title>A3</title>
<path fill="none" stroke="#000000" d="M168.3776,-439C168.3776,-439 73.0874,-439 73.0874,-439 67.0874,-439 61.0874,-433 61.0874,-427 61.0874,-427 61.0874,-415 61.0874,-415 61.0874,-409 67.0874,-403 73.0874,-403 73.0874,-403 168.3776,-403 168.3776,-403 174.3776,-403 180.3776,-409 180.3776,-415 180.3776,-415 180.3776,-427 180.3776,-427 180.3776,-433 174.3776,-439 168.3776,-439"/>
<text text-anchor="middle" x="120.7325" y="-424" font-family="Helvetica,sans-Serif" font-size="10.00" fill="#000000">{Does Schedule Key</text>
<text text-anchor="middle" x="120.7325" y="-412" font-family="Helvetica,sans-Serif" font-size="10.00" fill="#000000">Exist}</text>
</g>
<!-- A1&#45;&gt;A3 -->
<g id="edge3" class="edge">
<title>A1&#45;&gt;A3</title>
<path fill="none" stroke="#000000" d="M64.3554,-486.7733C74.3565,-475.1053 87.4861,-459.7874 98.5583,-446.8699"/>
<polygon fill="#000000" stroke="#000000" points="105.1401,-439.1912 102.0488,-449.7123 101.8861,-442.9875 98.6321,-446.7838 98.6321,-446.7838 98.6321,-446.7838 101.8861,-442.9875 95.2154,-443.8552 105.1401,-439.1912 105.1401,-439.1912"/>
<text text-anchor="middle" x="100.1255" y="-460" font-family="Helvetica,sans-Serif" font-size="10.00" fill="#000000">[Yes]</text>
</g>
<!-- A9 -->
<g id="node10" class="node">
<title>A9</title>
<ellipse fill="none" stroke="#000000" cx="188.7325" cy="-15" rx="11" ry="11"/>
<ellipse fill="none" stroke="#000000" cx="188.7325" cy="-15" rx="15" ry="15"/>
</g>
<!-- A2&#45;&gt;A9 -->
<g id="edge13" class="edge">
<title>A2&#45;&gt;A9</title>
<path fill="none" stroke="#000000" d="M141.2141,-66.9733C150.4489,-56.8726 161.9589,-44.2836 171.3379,-34.0254"/>
<polygon fill="#000000" stroke="#000000" points="178.3185,-26.3903 174.8919,-36.8071 174.9446,-30.0805 171.5708,-33.7706 171.5708,-33.7706 171.5708,-33.7706 174.9446,-30.0805 168.2496,-30.7341 178.3185,-26.3903 178.3185,-26.3903"/>
</g>
<!-- A3&#45;&gt;A2 -->
<g id="edge4" class="edge">
<title>A3&#45;&gt;A2</title>
<path fill="none" stroke="#000000" d="M105.5695,-402.9446C93.5391,-386.7495 78.7325,-361.7831 78.7325,-337 78.7325,-337 78.7325,-337 78.7325,-169 78.7325,-147.8164 90.1261,-126.9125 101.5725,-111.2568"/>
<polygon fill="#000000" stroke="#000000" points="107.865,-103.1307 105.3004,-113.7924 104.8037,-107.084 101.7424,-111.0373 101.7424,-111.0373 101.7424,-111.0373 104.8037,-107.084 98.1844,-108.2821 107.865,-103.1307 107.865,-103.1307"/>
<text text-anchor="middle" x="87.9005" y="-250" font-family="Helvetica,sans-Serif" font-size="10.00" fill="#000000">[No]</text>
</g>
<!-- A4 -->
<g id="node5" class="node">
<title>A4</title>
<path fill="none" stroke="#000000" d="M208.8546,-355C208.8546,-355 118.6104,-355 118.6104,-355 112.6104,-355 106.6104,-349 106.6104,-343 106.6104,-343 106.6104,-331 106.6104,-331 106.6104,-325 112.6104,-319 118.6104,-319 118.6104,-319 208.8546,-319 208.8546,-319 214.8546,-319 220.8546,-325 220.8546,-331 220.8546,-331 220.8546,-343 220.8546,-343 220.8546,-349 214.8546,-355 208.8546,-355"/>
<text text-anchor="middle" x="163.7325" y="-340" font-family="Helvetica,sans-Serif" font-size="10.00" fill="#000000">{Does Start Time id</text>
<text text-anchor="middle" x="163.7325" y="-328" font-family="Helvetica,sans-Serif" font-size="10.00" fill="#000000">Exist}</text>
</g>
<!-- A3&#45;&gt;A4 -->
<g id="edge5" class="edge">
<title>A3&#45;&gt;A4</title>
<path fill="none" stroke="#000000" d="M130.0629,-402.7733C135.8104,-391.5456 143.2879,-376.9383 149.7359,-364.3422"/>
<polygon fill="#000000" stroke="#000000" points="154.4203,-355.1912 153.8693,-366.1432 152.142,-359.6419 149.8636,-364.0927 149.8636,-364.0927 149.8636,-364.0927 152.142,-359.6419 145.8579,-362.0421 154.4203,-355.1912 154.4203,-355.1912"/>
<text text-anchor="middle" x="156.1255" y="-376" font-family="Helvetica,sans-Serif" font-size="10.00" fill="#000000">[Yes]</text>
</g>
<!-- A4&#45;&gt;A2 -->
<g id="edge6" class="edge">
<title>A4&#45;&gt;A2</title>
<path fill="none" stroke="#000000" d="M157.1658,-318.7501C152.7023,-305.6325 147.03,-287.4345 143.7325,-271 132.6794,-215.9122 127.887,-150.2847 125.9422,-113.5551"/>
<polygon fill="#000000" stroke="#000000" points="125.4263,-103.1277 130.4151,-112.8931 125.6734,-108.1216 125.9206,-113.1155 125.9206,-113.1155 125.9206,-113.1155 125.6734,-108.1216 121.4261,-113.3379 125.4263,-103.1277 125.4263,-103.1277"/>
<text text-anchor="middle" x="143.9005" y="-208" font-family="Helvetica,sans-Serif" font-size="10.00" fill="#000000">[No]</text>
</g>
<!-- A5 -->
<g id="node6" class="node">
<title>A5</title>
<path fill="none" stroke="#000000" d="M260.3746,-271C260.3746,-271 165.0904,-271 165.0904,-271 159.0904,-271 153.0904,-265 153.0904,-259 153.0904,-259 153.0904,-247 153.0904,-247 153.0904,-241 159.0904,-235 165.0904,-235 165.0904,-235 260.3746,-235 260.3746,-235 266.3746,-235 272.3746,-241 272.3746,-247 272.3746,-247 272.3746,-259 272.3746,-259 272.3746,-265 266.3746,-271 260.3746,-271"/>
<text text-anchor="middle" x="212.7325" y="-256" font-family="Helvetica,sans-Serif" font-size="10.00" fill="#000000">{Does Updated Start</text>
<text text-anchor="middle" x="212.7325" y="-244" font-family="Helvetica,sans-Serif" font-size="10.00" fill="#000000">Time Already Exist}</text>
</g>
<!-- A4&#45;&gt;A5 -->
<g id="edge7" class="edge">
<title>A4&#45;&gt;A5</title>
<path fill="none" stroke="#000000" d="M174.3648,-318.7733C180.9784,-307.4355 189.6024,-292.6515 196.9987,-279.9723"/>
<polygon fill="#000000" stroke="#000000" points="202.121,-271.1912 200.9692,-282.0964 199.6016,-275.5101 197.0822,-279.829 197.0822,-279.829 197.0822,-279.829 199.6016,-275.5101 193.1952,-277.5615 202.121,-271.1912 202.121,-271.1912"/>
<text text-anchor="middle" x="202.1255" y="-292" font-family="Helvetica,sans-Serif" font-size="10.00" fill="#000000">[Yes]</text>
</g>
<!-- A5&#45;&gt;A2 -->
<g id="edge8" class="edge">
<title>A5&#45;&gt;A2</title>
<path fill="none" stroke="#000000" d="M203.1474,-234.7012C187.6339,-205.0844 156.9452,-146.497 138.9029,-112.0526"/>
<polygon fill="#000000" stroke="#000000" points="134.1725,-103.0219 142.7989,-109.7922 136.4926,-107.4511 138.8127,-111.8802 138.8127,-111.8802 138.8127,-111.8802 136.4926,-107.4511 134.8264,-113.9683 134.1725,-103.0219 134.1725,-103.0219"/>
<text text-anchor="middle" x="188.1255" y="-166" font-family="Helvetica,sans-Serif" font-size="10.00" fill="#000000">[Yes]</text>
</g>
<!-- A6 -->
<g id="node7" class="node">
<title>A6</title>
<path fill="none" stroke="#000000" d="M323.3122,-187C323.3122,-187 224.1528,-187 224.1528,-187 218.1528,-187 212.1528,-181 212.1528,-175 212.1528,-175 212.1528,-163 212.1528,-163 212.1528,-157 218.1528,-151 224.1528,-151 224.1528,-151 323.3122,-151 323.3122,-151 329.3122,-151 335.3122,-157 335.3122,-163 335.3122,-163 335.3122,-175 335.3122,-175 335.3122,-181 329.3122,-187 323.3122,-187"/>
<text text-anchor="middle" x="273.7325" y="-172" font-family="Helvetica,sans-Serif" font-size="10.00" fill="#000000">{Update Start Time In</text>
<text text-anchor="middle" x="273.7325" y="-160" font-family="Helvetica,sans-Serif" font-size="10.00" fill="#000000">Database}</text>
</g>
<!-- A5&#45;&gt;A6 -->
<g id="edge9" class="edge">
<title>A5&#45;&gt;A6</title>
<path fill="none" stroke="#000000" d="M225.9686,-234.7733C234.2819,-223.3254 245.1466,-208.3641 254.4132,-195.6036"/>
<polygon fill="#000000" stroke="#000000" points="260.5222,-187.1912 258.2874,-197.9269 257.5842,-191.2369 254.6462,-195.2827 254.6462,-195.2827 254.6462,-195.2827 257.5842,-191.2369 251.005,-192.6385 260.5222,-187.1912 260.5222,-187.1912"/>
<text text-anchor="middle" x="255.9005" y="-208" font-family="Helvetica,sans-Serif" font-size="10.00" fill="#000000">[No]</text>
</g>
<!-- A6&#45;&gt;A2 -->
<g id="edge10" class="edge">
<title>A6&#45;&gt;A2</title>
<path fill="none" stroke="#000000" d="M241.7683,-150.9799C219.552,-138.4553 189.7465,-121.6522 165.7745,-108.1378"/>
<polygon fill="#000000" stroke="#000000" points="156.9006,-103.135 167.8216,-104.126 161.2561,-105.5905 165.6117,-108.046 165.6117,-108.046 165.6117,-108.046 161.2561,-105.5905 163.4017,-111.966 156.9006,-103.135 156.9006,-103.135"/>
<text text-anchor="middle" x="221.619" y="-124" font-family="Helvetica,sans-Serif" font-size="10.00" fill="#000000">[Error]</text>
</g>
<!-- A7 -->
<g id="node8" class="node">
<title>A7</title>
<path fill="none" stroke="#000000" d="M292.6415,-103C292.6415,-103 214.8235,-103 214.8235,-103 208.8235,-103 202.8235,-97 202.8235,-91 202.8235,-91 202.8235,-79 202.8235,-79 202.8235,-73 208.8235,-67 214.8235,-67 214.8235,-67 292.6415,-67 292.6415,-67 298.6415,-67 304.6415,-73 304.6415,-79 304.6415,-79 304.6415,-91 304.6415,-91 304.6415,-97 298.6415,-103 292.6415,-103"/>
<text text-anchor="middle" x="253.7325" y="-88" font-family="Helvetica,sans-Serif" font-size="10.00" fill="#000000">{Return Success</text>
<text text-anchor="middle" x="253.7325" y="-76" font-family="Helvetica,sans-Serif" font-size="10.00" fill="#000000">Model}</text>
</g>
<!-- A6&#45;&gt;A7 -->
<g id="edge11" class="edge">
<title>A6&#45;&gt;A7</title>
<path fill="none" stroke="#000000" d="M269.3928,-150.7733C266.772,-139.7657 263.3777,-125.5098 260.4195,-113.0854"/>
<polygon fill="#000000" stroke="#000000" points="258.0637,-103.1912 264.7576,-111.8769 259.2219,-108.0552 260.38,-112.9192 260.38,-112.9192 260.38,-112.9192 259.2219,-108.0552 256.0024,-113.9616 258.0637,-103.1912 258.0637,-103.1912"/>
<text text-anchor="middle" x="286.405" y="-124" font-family="Helvetica,sans-Serif" font-size="10.00" fill="#000000">[Success]</text>
</g>
<!-- A8 -->
<g id="node9" class="node">
<title>A8</title>
<path fill="none" stroke="#000000" d="M431.0257,-103C431.0257,-103 334.4393,-103 334.4393,-103 328.4393,-103 322.4393,-97 322.4393,-91 322.4393,-91 322.4393,-79 322.4393,-79 322.4393,-73 328.4393,-67 334.4393,-67 334.4393,-67 431.0257,-67 431.0257,-67 437.0257,-67 443.0257,-73 443.0257,-79 443.0257,-79 443.0257,-91 443.0257,-91 443.0257,-97 437.0257,-103 431.0257,-103"/>
<text text-anchor="middle" x="382.7325" y="-88" font-family="Helvetica,sans-Serif" font-size="10.00" fill="#000000">{Broadcase Update</text>
<text text-anchor="middle" x="382.7325" y="-76" font-family="Helvetica,sans-Serif" font-size="10.00" fill="#000000">Start Time message}</text>
</g>
<!-- A6&#45;&gt;A8 -->
<g id="edge12" class="edge">
<title>A6&#45;&gt;A8</title>
<path fill="none" stroke="#000000" d="M297.1157,-150.9799C312.8129,-138.883 333.6894,-122.7947 350.8976,-109.5333"/>
<polygon fill="#000000" stroke="#000000" points="359.0118,-103.2801 353.8379,-112.9487 355.0514,-106.3322 351.091,-109.3843 351.091,-109.3843 351.091,-109.3843 355.0514,-106.3322 348.3441,-105.8199 359.0118,-103.2801 359.0118,-103.2801"/>
<text text-anchor="middle" x="356.405" y="-124" font-family="Helvetica,sans-Serif" font-size="10.00" fill="#000000">[Success]</text>
</g>
<!-- A7&#45;&gt;A9 -->
<g id="edge14" class="edge">
<title>A7&#45;&gt;A9</title>
<path fill="none" stroke="#000000" d="M236.9934,-66.9733C227.5214,-56.7726 215.6927,-44.0341 206.1166,-33.7214"/>
<polygon fill="#000000" stroke="#000000" points="199.3092,-26.3903 209.4113,-30.6562 202.7115,-30.0543 206.1138,-33.7183 206.1138,-33.7183 206.1138,-33.7183 202.7115,-30.0543 202.8162,-36.7803 199.3092,-26.3903 199.3092,-26.3903"/>
</g>
</g>
</svg>
