<?xml version="1.0" encoding="UTF-8" standalone="no"?>
<!DOCTYPE svg PUBLIC "-//W3C//DTD SVG 1.1//EN"
 "http://www.w3.org/Graphics/SVG/1.1/DTD/svg11.dtd">
<!-- Generated by graphviz version 2.40.1 (20161225.0304)
 -->
<!-- Title: G Pages: 1 -->
<svg width="409pt" height="517pt"
 viewBox="0.00 0.00 408.58 517.00" xmlns="http://www.w3.org/2000/svg" xmlns:xlink="http://www.w3.org/1999/xlink">
<g id="graph0" class="graph" transform="scale(1 1) rotate(0) translate(4 513)">
<title>G</title>
<polygon fill="#ffffff" stroke="transparent" points="-4,4 -4,-513 404.5795,-513 404.5795,4 -4,4"/>
<!-- A0 -->
<g id="node1" class="node">
<title>A0</title>
<ellipse fill="none" stroke="#000000" cx="48.7325" cy="-498" rx="11" ry="11"/>
</g>
<!-- A1 -->
<g id="node2" class="node">
<title>A1</title>
<path fill="none" stroke="#000000" d="M85.6986,-439C85.6986,-439 11.7664,-439 11.7664,-439 5.7664,-439 -.2336,-433 -.2336,-427 -.2336,-427 -.2336,-415 -.2336,-415 -.2336,-409 5.7664,-403 11.7664,-403 11.7664,-403 85.6986,-403 85.6986,-403 91.6986,-403 97.6986,-409 97.6986,-415 97.6986,-415 97.6986,-427 97.6986,-427 97.6986,-433 91.6986,-439 85.6986,-439"/>
<text text-anchor="middle" x="48.7325" y="-418" font-family="Helvetica,sans-Serif" font-size="10.00" fill="#000000">{Is Model Valid}</text>
</g>
<!-- A0&#45;&gt;A1 -->
<g id="edge1" class="edge">
<title>A0&#45;&gt;A1</title>
<path fill="none" stroke="#000000" d="M48.7325,-486.9678C48.7325,-477.124 48.7325,-462.2813 48.7325,-449.1664"/>
<polygon fill="#000000" stroke="#000000" points="48.7325,-439.1474 53.2326,-449.1473 48.7325,-444.1474 48.7326,-449.1474 48.7326,-449.1474 48.7326,-449.1474 48.7325,-444.1474 44.2326,-449.1474 48.7325,-439.1474 48.7325,-439.1474"/>
<text text-anchor="middle" x="81.5165" y="-460" font-family="Helvetica,sans-Serif" font-size="10.00" fill="#000000">[New Request]</text>
</g>
<!-- A2 -->
<g id="node3" class="node">
<title>A2</title>
<path fill="none" stroke="#000000" d="M130.4129,-103C130.4129,-103 35.0521,-103 35.0521,-103 29.0521,-103 23.0521,-97 23.0521,-91 23.0521,-91 23.0521,-79 23.0521,-79 23.0521,-73 29.0521,-67 35.0521,-67 35.0521,-67 130.4129,-67 130.4129,-67 136.4129,-67 142.4129,-73 142.4129,-79 142.4129,-79 142.4129,-91 142.4129,-91 142.4129,-97 136.4129,-103 130.4129,-103"/>
<text text-anchor="middle" x="82.7325" y="-82" font-family="Helvetica,sans-Serif" font-size="10.00" fill="#000000">{Return Error Model}</text>
</g>
<!-- A1&#45;&gt;A2 -->
<g id="edge2" class="edge">
<title>A1&#45;&gt;A2</title>
<path fill="none" stroke="#000000" d="M43.2262,-402.8371C38.598,-385.9505 32.7325,-360.0106 32.7325,-337 32.7325,-337 32.7325,-337 32.7325,-169 32.7325,-147.5207 44.9533,-126.7485 57.3114,-111.2341"/>
<polygon fill="#000000" stroke="#000000" points="64.1143,-103.1849 61.0962,-113.7273 60.8868,-107.0037 57.6593,-110.8225 57.6593,-110.8225 57.6593,-110.8225 60.8868,-107.0037 54.2224,-107.9177 64.1143,-103.1849 64.1143,-103.1849"/>
<text text-anchor="middle" x="41.9005" y="-250" font-family="Helvetica,sans-Serif" font-size="10.00" fill="#000000">[No]</text>
</g>
<!-- A3 -->
<g id="node4" class="node">
<title>A3</title>
<path fill="none" stroke="#000000" d="M168.3776,-355C168.3776,-355 73.0874,-355 73.0874,-355 67.0874,-355 61.0874,-349 61.0874,-343 61.0874,-343 61.0874,-331 61.0874,-331 61.0874,-325 67.0874,-319 73.0874,-319 73.0874,-319 168.3776,-319 168.3776,-319 174.3776,-319 180.3776,-325 180.3776,-331 180.3776,-331 180.3776,-343 180.3776,-343 180.3776,-349 174.3776,-355 168.3776,-355"/>
<text text-anchor="middle" x="120.7325" y="-340" font-family="Helvetica,sans-Serif" font-size="10.00" fill="#000000">{Does Schedule Key</text>
<text text-anchor="middle" x="120.7325" y="-328" font-family="Helvetica,sans-Serif" font-size="10.00" fill="#000000">Exist}</text>
</g>
<!-- A1&#45;&gt;A3 -->
<g id="edge3" class="edge">
<title>A1&#45;&gt;A3</title>
<path fill="none" stroke="#000000" d="M64.3554,-402.7733C74.3565,-391.1053 87.4861,-375.7874 98.5583,-362.8699"/>
<polygon fill="#000000" stroke="#000000" points="105.1401,-355.1912 102.0488,-365.7123 101.8861,-358.9875 98.6321,-362.7838 98.6321,-362.7838 98.6321,-362.7838 101.8861,-358.9875 95.2154,-359.8552 105.1401,-355.1912 105.1401,-355.1912"/>
<text text-anchor="middle" x="100.1255" y="-376" font-family="Helvetica,sans-Serif" font-size="10.00" fill="#000000">[Yes]</text>
</g>
<!-- A8 -->
<g id="node9" class="node">
<title>A8</title>
<ellipse fill="none" stroke="#000000" cx="146.7325" cy="-15" rx="11" ry="11"/>
<ellipse fill="none" stroke="#000000" cx="146.7325" cy="-15" rx="15" ry="15"/>
</g>
<!-- A2&#45;&gt;A8 -->
<g id="edge11" class="edge">
<title>A2&#45;&gt;A8</title>
<path fill="none" stroke="#000000" d="M99.2141,-66.9733C108.4489,-56.8726 119.9589,-44.2836 129.3379,-34.0254"/>
<polygon fill="#000000" stroke="#000000" points="136.3185,-26.3903 132.8919,-36.8071 132.9446,-30.0805 129.5708,-33.7706 129.5708,-33.7706 129.5708,-33.7706 132.9446,-30.0805 126.2496,-30.7341 136.3185,-26.3903 136.3185,-26.3903"/>
</g>
<!-- A3&#45;&gt;A2 -->
<g id="edge4" class="edge">
<title>A3&#45;&gt;A2</title>
<path fill="none" stroke="#000000" d="M113.0047,-318.8656C107.7888,-305.8025 101.2388,-287.622 97.7325,-271 86.1582,-216.1312 83.3781,-150.4266 82.7914,-113.624"/>
<polygon fill="#000000" stroke="#000000" points="82.6724,-103.1744 87.2861,-113.1225 82.7294,-108.1741 82.7863,-113.1738 82.7863,-113.1738 82.7863,-113.1738 82.7294,-108.1741 78.2866,-113.225 82.6724,-103.1744 82.6724,-103.1744"/>
<text text-anchor="middle" x="97.9005" y="-208" font-family="Helvetica,sans-Serif" font-size="10.00" fill="#000000">[No]</text>
</g>
<!-- A4 -->
<g id="node5" class="node">
<title>A4</title>
<path fill="none" stroke="#000000" d="M218.9159,-271C218.9159,-271 118.5491,-271 118.5491,-271 112.5491,-271 106.5491,-265 106.5491,-259 106.5491,-259 106.5491,-247 106.5491,-247 106.5491,-241 112.5491,-235 118.5491,-235 118.5491,-235 218.9159,-235 218.9159,-235 224.9159,-235 230.9159,-241 230.9159,-247 230.9159,-247 230.9159,-259 230.9159,-259 230.9159,-265 224.9159,-271 218.9159,-271"/>
<text text-anchor="middle" x="168.7325" y="-256" font-family="Helvetica,sans-Serif" font-size="10.00" fill="#000000">{Does Property Name</text>
<text text-anchor="middle" x="168.7325" y="-244" font-family="Helvetica,sans-Serif" font-size="10.00" fill="#000000">Exist}</text>
</g>
<!-- A3&#45;&gt;A4 -->
<g id="edge5" class="edge">
<title>A3&#45;&gt;A4</title>
<path fill="none" stroke="#000000" d="M131.1478,-318.7733C137.6265,-307.4355 146.0745,-292.6515 153.3198,-279.9723"/>
<polygon fill="#000000" stroke="#000000" points="158.3375,-271.1912 157.2832,-282.1063 155.8568,-275.5324 153.3761,-279.8736 153.3761,-279.8736 153.3761,-279.8736 155.8568,-275.5324 149.469,-277.641 158.3375,-271.1912 158.3375,-271.1912"/>
<text text-anchor="middle" x="158.1255" y="-292" font-family="Helvetica,sans-Serif" font-size="10.00" fill="#000000">[Yes]</text>
</g>
<!-- A4&#45;&gt;A2 -->
<g id="edge6" class="edge">
<title>A4&#45;&gt;A2</title>
<path fill="none" stroke="#000000" d="M159.0384,-234.8413C152.0061,-221.6119 142.302,-203.2395 133.9465,-187 120.955,-161.7501 106.4601,-132.8067 96.2159,-112.2171"/>
<polygon fill="#000000" stroke="#000000" points="91.6914,-103.1112 100.1711,-110.0643 93.9163,-107.5889 96.1412,-112.0666 96.1412,-112.0666 96.1412,-112.0666 93.9163,-107.5889 92.1112,-114.069 91.6914,-103.1112 91.6914,-103.1112"/>
<text text-anchor="middle" x="145.1255" y="-166" font-family="Helvetica,sans-Serif" font-size="10.00" fill="#000000">[Yes]</text>
</g>
<!-- A5 -->
<g id="node6" class="node">
<title>A5</title>
<path fill="none" stroke="#000000" d="M254.0377,-187C254.0377,-187 177.4273,-187 177.4273,-187 171.4273,-187 165.4273,-181 165.4273,-175 165.4273,-175 165.4273,-163 165.4273,-163 165.4273,-157 171.4273,-151 177.4273,-151 177.4273,-151 254.0377,-151 254.0377,-151 260.0377,-151 266.0377,-157 266.0377,-163 266.0377,-163 266.0377,-175 266.0377,-175 266.0377,-181 260.0377,-187 254.0377,-187"/>
<text text-anchor="middle" x="215.7325" y="-172" font-family="Helvetica,sans-Serif" font-size="10.00" fill="#000000">{Add Property to</text>
<text text-anchor="middle" x="215.7325" y="-160" font-family="Helvetica,sans-Serif" font-size="10.00" fill="#000000">Database}</text>
</g>
<!-- A4&#45;&gt;A5 -->
<g id="edge7" class="edge">
<title>A4&#45;&gt;A5</title>
<path fill="none" stroke="#000000" d="M178.9308,-234.7733C185.2745,-223.4355 193.5465,-208.6515 200.6409,-195.9723"/>
<polygon fill="#000000" stroke="#000000" points="205.5541,-187.1912 204.5983,-198.1153 203.1126,-191.5546 200.6712,-195.918 200.6712,-195.918 200.6712,-195.918 203.1126,-191.5546 196.7441,-193.7207 205.5541,-187.1912 205.5541,-187.1912"/>
<text text-anchor="middle" x="203.9005" y="-208" font-family="Helvetica,sans-Serif" font-size="10.00" fill="#000000">[No]</text>
</g>
<!-- A5&#45;&gt;A2 -->
<g id="edge8" class="edge">
<title>A5&#45;&gt;A2</title>
<path fill="none" stroke="#000000" d="M187.2007,-150.9799C167.6119,-138.608 141.413,-122.0614 120.1524,-108.6336"/>
<polygon fill="#000000" stroke="#000000" points="111.6761,-103.2801 122.534,-104.8154 115.9035,-105.9501 120.131,-108.6201 120.131,-108.6201 120.131,-108.6201 115.9035,-105.9501 117.728,-112.4248 111.6761,-103.2801 111.6761,-103.2801"/>
<text text-anchor="middle" x="170.619" y="-124" font-family="Helvetica,sans-Serif" font-size="10.00" fill="#000000">[Error]</text>
</g>
<!-- A6 -->
<g id="node7" class="node">
<title>A6</title>
<path fill="none" stroke="#000000" d="M250.6415,-103C250.6415,-103 172.8235,-103 172.8235,-103 166.8235,-103 160.8235,-97 160.8235,-91 160.8235,-91 160.8235,-79 160.8235,-79 160.8235,-73 166.8235,-67 172.8235,-67 172.8235,-67 250.6415,-67 250.6415,-67 256.6415,-67 262.6415,-73 262.6415,-79 262.6415,-79 262.6415,-91 262.6415,-91 262.6415,-97 256.6415,-103 250.6415,-103"/>
<text text-anchor="middle" x="211.7325" y="-88" font-family="Helvetica,sans-Serif" font-size="10.00" fill="#000000">{Return Success</text>
<text text-anchor="middle" x="211.7325" y="-76" font-family="Helvetica,sans-Serif" font-size="10.00" fill="#000000">Model}</text>
</g>
<!-- A5&#45;&gt;A6 -->
<g id="edge9" class="edge">
<title>A5&#45;&gt;A6</title>
<path fill="none" stroke="#000000" d="M214.8646,-150.7733C214.3456,-139.8758 213.6751,-125.7946 213.0877,-113.4587"/>
<polygon fill="#000000" stroke="#000000" points="212.5987,-103.1912 217.5694,-112.9658 212.8366,-108.1855 213.0745,-113.1799 213.0745,-113.1799 213.0745,-113.1799 212.8366,-108.1855 208.5796,-113.3939 212.5987,-103.1912 212.5987,-103.1912"/>
<text text-anchor="middle" x="235.405" y="-124" font-family="Helvetica,sans-Serif" font-size="10.00" fill="#000000">[Success]</text>
</g>
<!-- A7 -->
<g id="node8" class="node">
<title>A7</title>
<path fill="none" stroke="#000000" d="M388.4269,-103C388.4269,-103 293.0381,-103 293.0381,-103 287.0381,-103 281.0381,-97 281.0381,-91 281.0381,-91 281.0381,-79 281.0381,-79 281.0381,-73 287.0381,-67 293.0381,-67 293.0381,-67 388.4269,-67 388.4269,-67 394.4269,-67 400.4269,-73 400.4269,-79 400.4269,-79 400.4269,-91 400.4269,-91 400.4269,-97 394.4269,-103 388.4269,-103"/>
<text text-anchor="middle" x="340.7325" y="-88" font-family="Helvetica,sans-Serif" font-size="10.00" fill="#000000">{Broadcase Property</text>
<text text-anchor="middle" x="340.7325" y="-76" font-family="Helvetica,sans-Serif" font-size="10.00" fill="#000000">Added}</text>
</g>
<!-- A5&#45;&gt;A7 -->
<g id="edge10" class="edge">
<title>A5&#45;&gt;A7</title>
<path fill="none" stroke="#000000" d="M242.5481,-150.9799C260.795,-138.718 285.1444,-122.3552 305.0295,-108.9924"/>
<polygon fill="#000000" stroke="#000000" points="313.5299,-103.2801 307.7398,-112.5928 309.3799,-106.069 305.2299,-108.8578 305.2299,-108.8578 305.2299,-108.8578 309.3799,-106.069 302.7199,-105.1228 313.5299,-103.2801 313.5299,-103.2801"/>
<text text-anchor="middle" x="306.405" y="-124" font-family="Helvetica,sans-Serif" font-size="10.00" fill="#000000">[Success]</text>
</g>
<!-- A6&#45;&gt;A8 -->
<g id="edge12" class="edge">
<title>A6&#45;&gt;A8</title>
<path fill="none" stroke="#000000" d="M194.9934,-66.9733C185.5214,-56.7726 173.6927,-44.0341 164.1166,-33.7214"/>
<polygon fill="#000000" stroke="#000000" points="157.3092,-26.3903 167.4113,-30.6562 160.7115,-30.0543 164.1138,-33.7183 164.1138,-33.7183 164.1138,-33.7183 160.7115,-30.0543 160.8162,-36.7803 157.3092,-26.3903 157.3092,-26.3903"/>
</g>
</g>
</svg>
