<?xml version="1.0" encoding="UTF-8" standalone="no"?>
<!DOCTYPE svg PUBLIC "-//W3C//DTD SVG 1.1//EN"
 "http://www.w3.org/Graphics/SVG/1.1/DTD/svg11.dtd">
<!-- Generated by graphviz version 2.40.1 (20161225.0304)
 -->
<!-- Title: G Pages: 1 -->
<svg width="404pt" height="517pt"
 viewBox="0.00 0.00 403.81 517.00" xmlns="http://www.w3.org/2000/svg" xmlns:xlink="http://www.w3.org/1999/xlink">
<g id="graph0" class="graph" transform="scale(1 1) rotate(0) translate(4 513)">
<title>G</title>
<polygon fill="#ffffff" stroke="transparent" points="-4,4 -4,-513 399.805,-513 399.805,4 -4,4"/>
<!-- A0 -->
<g id="node1" class="node">
<title>A0</title>
<ellipse fill="none" stroke="#000000" cx="48.7325" cy="-498" rx="11" ry="11"/>
</g>
<!-- A1 -->
<g id="node2" class="node">
<title>A1</title>
<path fill="none" stroke="#000000" d="M85.6986,-439C85.6986,-439 11.7664,-439 11.7664,-439 5.7664,-439 -.2336,-433 -.2336,-427 -.2336,-427 -.2336,-415 -.2336,-415 -.2336,-409 5.7664,-403 11.7664,-403 11.7664,-403 85.6986,-403 85.6986,-403 91.6986,-403 97.6986,-409 97.6986,-415 97.6986,-415 97.6986,-427 97.6986,-427 97.6986,-433 91.6986,-439 85.6986,-439"/>
<text text-anchor="middle" x="48.7325" y="-418" font-family="Helvetica,sans-Serif" font-size="10.00" fill="#000000">{Is Model Valid}</text>
</g>
<!-- A0&#45;&gt;A1 -->
<g id="edge1" class="edge">
<title>A0&#45;&gt;A1</title>
<path fill="none" stroke="#000000" d="M48.7325,-486.9678C48.7325,-477.124 48.7325,-462.2813 48.7325,-449.1664"/>
<polygon fill="#000000" stroke="#000000" points="48.7325,-439.1474 53.2326,-449.1473 48.7325,-444.1474 48.7326,-449.1474 48.7326,-449.1474 48.7326,-449.1474 48.7325,-444.1474 44.2326,-449.1474 48.7325,-439.1474 48.7325,-439.1474"/>
<text text-anchor="middle" x="81.5165" y="-460" font-family="Helvetica,sans-Serif" font-size="10.00" fill="#000000">[New Request]</text>
</g>
<!-- A2 -->
<g id="node3" class="node">
<title>A2</title>
<path fill="none" stroke="#000000" d="M131.4129,-103C131.4129,-103 36.0521,-103 36.0521,-103 30.0521,-103 24.0521,-97 24.0521,-91 24.0521,-91 24.0521,-79 24.0521,-79 24.0521,-73 30.0521,-67 36.0521,-67 36.0521,-67 131.4129,-67 131.4129,-67 137.4129,-67 143.4129,-73 143.4129,-79 143.4129,-79 143.4129,-91 143.4129,-91 143.4129,-97 137.4129,-103 131.4129,-103"/>
<text text-anchor="middle" x="83.7325" y="-82" font-family="Helvetica,sans-Serif" font-size="10.00" fill="#000000">{Return Error Model}</text>
</g>
<!-- A1&#45;&gt;A2 -->
<g id="edge2" class="edge">
<title>A1&#45;&gt;A2</title>
<path fill="none" stroke="#000000" d="M43.2262,-402.8371C38.598,-385.9505 32.7325,-360.0106 32.7325,-337 32.7325,-337 32.7325,-337 32.7325,-169 32.7325,-147.2075 45.4296,-126.2494 58.1531,-110.7185"/>
<polygon fill="#000000" stroke="#000000" points="64.742,-103.1159 61.5933,-113.62 61.4673,-106.8943 58.1927,-110.6728 58.1927,-110.6728 58.1927,-110.6728 61.4673,-106.8943 54.7921,-107.7256 64.742,-103.1159 64.742,-103.1159"/>
<text text-anchor="middle" x="41.9005" y="-250" font-family="Helvetica,sans-Serif" font-size="10.00" fill="#000000">[No]</text>
</g>
<!-- A3 -->
<g id="node4" class="node">
<title>A3</title>
<path fill="none" stroke="#000000" d="M168.3776,-355C168.3776,-355 73.0874,-355 73.0874,-355 67.0874,-355 61.0874,-349 61.0874,-343 61.0874,-343 61.0874,-331 61.0874,-331 61.0874,-325 67.0874,-319 73.0874,-319 73.0874,-319 168.3776,-319 168.3776,-319 174.3776,-319 180.3776,-325 180.3776,-331 180.3776,-331 180.3776,-343 180.3776,-343 180.3776,-349 174.3776,-355 168.3776,-355"/>
<text text-anchor="middle" x="120.7325" y="-340" font-family="Helvetica,sans-Serif" font-size="10.00" fill="#000000">{Does Schedule Key</text>
<text text-anchor="middle" x="120.7325" y="-328" font-family="Helvetica,sans-Serif" font-size="10.00" fill="#000000">Exist}</text>
</g>
<!-- A1&#45;&gt;A3 -->
<g id="edge3" class="edge">
<title>A1&#45;&gt;A3</title>
<path fill="none" stroke="#000000" d="M64.3554,-402.7733C74.3565,-391.1053 87.4861,-375.7874 98.5583,-362.8699"/>
<polygon fill="#000000" stroke="#000000" points="105.1401,-355.1912 102.0488,-365.7123 101.8861,-358.9875 98.6321,-362.7838 98.6321,-362.7838 98.6321,-362.7838 101.8861,-358.9875 95.2154,-359.8552 105.1401,-355.1912 105.1401,-355.1912"/>
<text text-anchor="middle" x="100.1255" y="-376" font-family="Helvetica,sans-Serif" font-size="10.00" fill="#000000">[Yes]</text>
</g>
<!-- A8 -->
<g id="node9" class="node">
<title>A8</title>
<ellipse fill="none" stroke="#000000" cx="147.7325" cy="-15" rx="11" ry="11"/>
<ellipse fill="none" stroke="#000000" cx="147.7325" cy="-15" rx="15" ry="15"/>
</g>
<!-- A2&#45;&gt;A8 -->
<g id="edge11" class="edge">
<title>A2&#45;&gt;A8</title>
<path fill="none" stroke="#000000" d="M100.2141,-66.9733C109.4489,-56.8726 120.9589,-44.2836 130.3379,-34.0254"/>
<polygon fill="#000000" stroke="#000000" points="137.3185,-26.3903 133.8919,-36.8071 133.9446,-30.0805 130.5708,-33.7706 130.5708,-33.7706 130.5708,-33.7706 133.9446,-30.0805 127.2496,-30.7341 137.3185,-26.3903 137.3185,-26.3903"/>
</g>
<!-- A3&#45;&gt;A2 -->
<g id="edge4" class="edge">
<title>A3&#45;&gt;A2</title>
<path fill="none" stroke="#000000" d="M112.9774,-318.8714C107.7485,-305.8109 101.1944,-287.6313 97.7325,-271 86.3096,-216.1233 83.9334,-150.4215 83.5923,-113.6215"/>
<polygon fill="#000000" stroke="#000000" points="83.544,-103.1727 88.0903,-113.1518 83.5672,-108.1727 83.5903,-113.1726 83.5903,-113.1726 83.5903,-113.1726 83.5672,-108.1727 79.0904,-113.1935 83.544,-103.1727 83.544,-103.1727"/>
<text text-anchor="middle" x="97.9005" y="-208" font-family="Helvetica,sans-Serif" font-size="10.00" fill="#000000">[No]</text>
</g>
<!-- A4 -->
<g id="node5" class="node">
<title>A4</title>
<path fill="none" stroke="#000000" d="M218.9159,-271C218.9159,-271 118.5491,-271 118.5491,-271 112.5491,-271 106.5491,-265 106.5491,-259 106.5491,-259 106.5491,-247 106.5491,-247 106.5491,-241 112.5491,-235 118.5491,-235 118.5491,-235 218.9159,-235 218.9159,-235 224.9159,-235 230.9159,-241 230.9159,-247 230.9159,-247 230.9159,-259 230.9159,-259 230.9159,-265 224.9159,-271 218.9159,-271"/>
<text text-anchor="middle" x="168.7325" y="-256" font-family="Helvetica,sans-Serif" font-size="10.00" fill="#000000">{Does Property Name</text>
<text text-anchor="middle" x="168.7325" y="-244" font-family="Helvetica,sans-Serif" font-size="10.00" fill="#000000">Exist}</text>
</g>
<!-- A3&#45;&gt;A4 -->
<g id="edge5" class="edge">
<title>A3&#45;&gt;A4</title>
<path fill="none" stroke="#000000" d="M131.1478,-318.7733C137.6265,-307.4355 146.0745,-292.6515 153.3198,-279.9723"/>
<polygon fill="#000000" stroke="#000000" points="158.3375,-271.1912 157.2832,-282.1063 155.8568,-275.5324 153.3761,-279.8736 153.3761,-279.8736 153.3761,-279.8736 155.8568,-275.5324 149.469,-277.641 158.3375,-271.1912 158.3375,-271.1912"/>
<text text-anchor="middle" x="158.1255" y="-292" font-family="Helvetica,sans-Serif" font-size="10.00" fill="#000000">[Yes]</text>
</g>
<!-- A4&#45;&gt;A2 -->
<g id="edge6" class="edge">
<title>A4&#45;&gt;A2</title>
<path fill="none" stroke="#000000" d="M158.7945,-234.8898C151.607,-221.6838 141.7343,-203.3195 133.3965,-187 120.5549,-161.8653 106.5278,-132.9081 96.6664,-112.2841"/>
<polygon fill="#000000" stroke="#000000" points="92.3158,-103.1607 100.6819,-110.25 94.4679,-107.6738 96.6201,-112.1869 96.6201,-112.1869 96.6201,-112.1869 94.4679,-107.6738 92.5583,-114.1239 92.3158,-103.1607 92.3158,-103.1607"/>
<text text-anchor="middle" x="141.9005" y="-166" font-family="Helvetica,sans-Serif" font-size="10.00" fill="#000000">[No]</text>
</g>
<!-- A5 -->
<g id="node6" class="node">
<title>A5</title>
<path fill="none" stroke="#000000" d="M262.2655,-187C262.2655,-187 173.1995,-187 173.1995,-187 167.1995,-187 161.1995,-181 161.1995,-175 161.1995,-175 161.1995,-163 161.1995,-163 161.1995,-157 167.1995,-151 173.1995,-151 173.1995,-151 262.2655,-151 262.2655,-151 268.2655,-151 274.2655,-157 274.2655,-163 274.2655,-163 274.2655,-175 274.2655,-175 274.2655,-181 268.2655,-187 262.2655,-187"/>
<text text-anchor="middle" x="217.7325" y="-172" font-family="Helvetica,sans-Serif" font-size="10.00" fill="#000000">{Update Property</text>
<text text-anchor="middle" x="217.7325" y="-160" font-family="Helvetica,sans-Serif" font-size="10.00" fill="#000000">Value in Database}</text>
</g>
<!-- A4&#45;&gt;A5 -->
<g id="edge7" class="edge">
<title>A4&#45;&gt;A5</title>
<path fill="none" stroke="#000000" d="M179.3648,-234.7733C185.9784,-223.4355 194.6024,-208.6515 201.9987,-195.9723"/>
<polygon fill="#000000" stroke="#000000" points="207.121,-187.1912 205.9692,-198.0964 204.6016,-191.5101 202.0822,-195.829 202.0822,-195.829 202.0822,-195.829 204.6016,-191.5101 198.1952,-193.5615 207.121,-187.1912 207.121,-187.1912"/>
<text text-anchor="middle" x="207.1255" y="-208" font-family="Helvetica,sans-Serif" font-size="10.00" fill="#000000">[Yes]</text>
</g>
<!-- A5&#45;&gt;A2 -->
<g id="edge8" class="edge">
<title>A5&#45;&gt;A2</title>
<path fill="none" stroke="#000000" d="M188.9861,-150.9799C169.2501,-138.608 142.8542,-122.0614 121.4337,-108.6336"/>
<polygon fill="#000000" stroke="#000000" points="112.8937,-103.2801 123.7567,-104.7787 117.1301,-105.9358 121.3666,-108.5915 121.3666,-108.5915 121.3666,-108.5915 117.1301,-105.9358 118.9764,-112.4043 112.8937,-103.2801 112.8937,-103.2801"/>
<text text-anchor="middle" x="172.619" y="-124" font-family="Helvetica,sans-Serif" font-size="10.00" fill="#000000">[Error]</text>
</g>
<!-- A6 -->
<g id="node7" class="node">
<title>A6</title>
<path fill="none" stroke="#000000" d="M251.6415,-103C251.6415,-103 173.8235,-103 173.8235,-103 167.8235,-103 161.8235,-97 161.8235,-91 161.8235,-91 161.8235,-79 161.8235,-79 161.8235,-73 167.8235,-67 173.8235,-67 173.8235,-67 251.6415,-67 251.6415,-67 257.6415,-67 263.6415,-73 263.6415,-79 263.6415,-79 263.6415,-91 263.6415,-91 263.6415,-97 257.6415,-103 251.6415,-103"/>
<text text-anchor="middle" x="212.7325" y="-88" font-family="Helvetica,sans-Serif" font-size="10.00" fill="#000000">{Return Success</text>
<text text-anchor="middle" x="212.7325" y="-76" font-family="Helvetica,sans-Serif" font-size="10.00" fill="#000000">Model}</text>
</g>
<!-- A5&#45;&gt;A6 -->
<g id="edge9" class="edge">
<title>A5&#45;&gt;A6</title>
<path fill="none" stroke="#000000" d="M216.6476,-150.7733C215.9989,-139.8758 215.1608,-125.7946 214.4265,-113.4587"/>
<polygon fill="#000000" stroke="#000000" points="213.8153,-103.1912 218.9016,-112.9061 214.1124,-108.1823 214.4096,-113.1735 214.4096,-113.1735 214.4096,-113.1735 214.1124,-108.1823 209.9175,-113.4409 213.8153,-103.1912 213.8153,-103.1912"/>
<text text-anchor="middle" x="236.405" y="-124" font-family="Helvetica,sans-Serif" font-size="10.00" fill="#000000">[Success]</text>
</g>
<!-- A7 -->
<g id="node8" class="node">
<title>A7</title>
<path fill="none" stroke="#000000" d="M383.8776,-103C383.8776,-103 293.5874,-103 293.5874,-103 287.5874,-103 281.5874,-97 281.5874,-91 281.5874,-91 281.5874,-79 281.5874,-79 281.5874,-73 287.5874,-67 293.5874,-67 293.5874,-67 383.8776,-67 383.8776,-67 389.8776,-67 395.8776,-73 395.8776,-79 395.8776,-79 395.8776,-91 395.8776,-91 395.8776,-97 389.8776,-103 383.8776,-103"/>
<text text-anchor="middle" x="338.7325" y="-88" font-family="Helvetica,sans-Serif" font-size="10.00" fill="#000000">{Broadcase Update</text>
<text text-anchor="middle" x="338.7325" y="-76" font-family="Helvetica,sans-Serif" font-size="10.00" fill="#000000">Property Message}</text>
</g>
<!-- A5&#45;&gt;A7 -->
<g id="edge10" class="edge">
<title>A5&#45;&gt;A7</title>
<path fill="none" stroke="#000000" d="M243.69,-150.9799C261.353,-138.718 284.9232,-122.3552 304.172,-108.9924"/>
<polygon fill="#000000" stroke="#000000" points="312.4004,-103.2801 306.752,-112.6794 308.2931,-106.1315 304.1858,-108.9829 304.1858,-108.9829 304.1858,-108.9829 308.2931,-106.1315 301.6196,-105.2863 312.4004,-103.2801 312.4004,-103.2801"/>
<text text-anchor="middle" x="306.405" y="-124" font-family="Helvetica,sans-Serif" font-size="10.00" fill="#000000">[Success]</text>
</g>
<!-- A6&#45;&gt;A8 -->
<g id="edge12" class="edge">
<title>A6&#45;&gt;A8</title>
<path fill="none" stroke="#000000" d="M195.9934,-66.9733C186.5214,-56.7726 174.6927,-44.0341 165.1166,-33.7214"/>
<polygon fill="#000000" stroke="#000000" points="158.3092,-26.3903 168.4113,-30.6562 161.7115,-30.0543 165.1138,-33.7183 165.1138,-33.7183 165.1138,-33.7183 161.7115,-30.0543 161.8162,-36.7803 158.3092,-26.3903 158.3092,-26.3903"/>
</g>
</g>
</svg>
